<?xml version="1.0" standalone="no"?>
<!DOCTYPE svg PUBLIC "-//W3C//DTD SVG 20010904//EN"
 "http://www.w3.org/TR/2001/REC-SVG-20010904/DTD/svg10.dtd">
<svg version="1.0" xmlns="http://www.w3.org/2000/svg"
 width="900.000000pt" height="900.000000pt" viewBox="0 0 900.000000 900.000000"
 preserveAspectRatio="xMidYMid meet">
<metadata>
Created by potrace 1.11, written by Peter Selinger 2001-2013
</metadata>
<g transform="translate(0.000000,900.000000) scale(0.100000,-0.100000)"
fill="#000000" stroke="none">
<path d="M3830 7907 c-3 -3 -61 -15 -130 -27 -350 -60 -1049 -249 -2122 -576
-142 -43 -256 -79 -254 -81 2 -2 106 23 232 56 126 33 402 105 614 160 783
204 1461 363 1541 360 13 0 60 5 104 11 44 6 100 9 125 6 25 -3 53 -6 64 -6
14 -1 11 -6 -15 -26 -18 -13 -37 -24 -43 -24 -5 0 -7 -2 -4 -5 3 -3 19 1 37 8
17 7 29 16 26 19 -14 14 49 17 78 4 18 -8 50 -18 72 -22 61 -11 63 -12 165
-39 52 -15 110 -29 127 -32 19 -3 30 -9 26 -16 -3 -5 -1 -7 5 -3 6 3 34 1 63
-5 48 -11 51 -13 34 -25 -24 -17 -12 -18 15 -1 17 10 22 9 29 -1 4 -7 16 -10
27 -6 16 5 17 4 4 -6 -12 -10 -11 -11 9 -6 14 3 42 -3 64 -15 43 -20 62 -25
37 -9 -23 15 1 12 66 -9 32 -10 75 -22 95 -25 19 -3 44 -13 55 -21 16 -13 17
-16 4 -25 -9 -6 -10 -10 -3 -10 6 0 18 7 27 15 16 16 41 21 31 6 -3 -5 0 -13
6 -17 8 -4 9 -3 5 4 -4 7 -1 12 8 12 9 0 16 -5 16 -11 0 -5 4 -8 9 -5 5 4 33
1 62 -6 46 -11 50 -13 28 -20 -19 -6 -17 -7 11 -4 42 4 81 -5 82 -19 1 -13 38
-39 45 -31 4 3 1 6 -5 6 -7 0 -12 8 -12 18 0 11 3 13 8 5 4 -6 14 -11 22 -11
39 3 64 -3 52 -10 -8 -6 0 -9 20 -9 58 0 168 -35 168 -52 0 -13 2 -14 9 -2 13
20 42 6 35 -16 -5 -14 -4 -15 4 -4 9 12 20 13 81 1 39 -7 71 -17 71 -21 0 -5
8 -6 18 -3 14 5 14 3 -2 -10 -15 -12 -16 -16 -5 -16 8 0 20 5 27 12 9 9 16 8
30 -5 10 -9 23 -17 28 -17 5 0 2 5 -6 10 -11 8 -7 9 15 4 28 -7 40 -16 48 -38
2 -5 12 -3 23 4 17 10 31 9 80 -6 32 -9 61 -18 64 -19 91 -18 128 -29 124 -37
-4 -6 1 -8 12 -4 11 3 53 -4 94 -15 41 -11 86 -22 100 -25 44 -8 126 -34 98
-30 -15 2 -25 -1 -22 -5 3 -5 -2 -9 -11 -9 -9 0 -13 5 -10 10 3 6 1 10 -4 10
-15 0 -14 -17 2 -27 6 -4 23 -9 37 -10 22 -2 23 -1 5 7 l-20 9 20 0 c11 1 31
4 45 7 24 5 24 5 6 -10 -23 -18 -14 -21 15 -5 26 13 120 -7 133 -29 6 -11 10
-12 16 -2 6 10 23 9 79 -5 39 -9 74 -21 77 -26 3 -5 0 -9 -5 -9 -6 0 -11 -4
-11 -9 0 -5 12 -8 26 -8 18 0 22 2 13 8 -7 4 -10 11 -7 14 4 4 12 4 19 -1 7
-4 24 -8 38 -10 14 -1 35 -4 46 -7 11 -3 31 -6 45 -6 20 -1 22 -3 10 -12 -11
-7 -4 -8 25 -5 33 5 36 4 15 -4 -21 -8 -19 -9 14 -5 54 6 98 -4 92 -22 -3 -8
-1 -11 4 -8 16 10 51 15 46 6 -3 -4 14 -8 38 -8 23 0 48 -3 54 -7 7 -4 39 -9
71 -11 32 -1 69 -6 82 -9 21 -5 22 -5 4 4 -11 5 -121 37 -245 71 -208 56 -435
119 -1295 361 -1121 314 -1918 520 -2040 526 -44 2 -83 1 -85 -1z"/>
<path d="M3878 7803 c6 -2 18 -2 25 0 6 3 1 5 -13 5 -14 0 -19 -2 -12 -5z"/>
<path d="M3765 7790 l-20 -9 20 -1 c11 -1 15 -4 7 -7 -7 -3 -27 0 -45 6 -29
10 -30 9 -13 -4 21 -16 47 -18 86 -5 l25 8 -25 2 c-24 2 -23 3 5 10 27 7 28 8
5 8 -14 0 -34 -3 -45 -8z"/>
<path d="M3945 7790 c-13 -6 -15 -9 -5 -9 8 0 22 4 30 9 18 12 2 12 -25 0z"/>
<path d="M4040 7779 c0 -5 5 -7 10 -4 6 3 10 8 10 11 0 2 -4 4 -10 4 -5 0 -10
-5 -10 -11z"/>
<path d="M3623 7770 c-34 -14 -28 -21 7 -9 17 6 30 13 30 15 0 6 -12 4 -37 -6z"/>
<path d="M3841 7776 c12 -10 60 -16 54 -6 -3 5 -18 10 -32 10 -15 0 -24 -2
-22 -4z"/>
<path d="M4074 7771 c-5 -5 -22 -11 -39 -14 l-30 -4 30 -1 c30 -2 64 12 54 22
-3 3 -10 2 -15 -3z"/>
<path d="M3808 7753 c12 -2 30 -2 40 0 9 3 -1 5 -23 4 -22 0 -30 -2 -17 -4z"/>
<path d="M3465 7719 c16 -7 13 -8 -11 -5 -18 3 -34 2 -38 -1 -9 -9 14 -33 32
-33 14 0 13 2 -1 13 -15 10 -13 12 18 13 49 1 64 19 17 21 -30 1 -33 -1 -17
-8z"/>
<path d="M4246 7721 c-4 -5 3 -7 14 -4 23 6 26 13 6 13 -8 0 -17 -4 -20 -9z"/>
<path d="M4267 7706 c-25 -10 -22 -11 38 -13 36 -1 65 2 65 7 0 5 -6 7 -13 4
-8 -3 -25 -1 -38 5 -16 6 -34 5 -52 -3z"/>
<path d="M3332 7691 c-20 -12 17 -19 48 -9 25 8 25 8 -2 4 -15 -2 -29 1 -30 5
-2 5 -9 5 -16 0z"/>
<path d="M3484 7685 c-10 -8 -14 -14 -9 -14 6 0 19 6 29 14 11 8 15 15 10 15
-6 0 -19 -7 -30 -15z"/>
<path d="M4285 7680 c28 -12 37 -12 30 0 -3 6 -16 10 -28 9 -21 0 -21 -1 -2
-9z"/>
<path d="M4368 7673 c7 -3 16 -2 19 1 4 3 -2 6 -13 5 -11 0 -14 -3 -6 -6z"/>
<path d="M3225 7659 c-4 -6 -14 -8 -22 -5 -8 3 -11 1 -8 -4 8 -14 18 -13 41 5
10 8 14 15 7 15 -6 0 -15 -5 -18 -11z"/>
<path d="M3250 7641 c0 -5 -8 -12 -17 -14 -15 -4 -15 -5 -2 -6 9 0 22 6 29 14
9 10 9 15 1 15 -6 0 -11 -4 -11 -9z"/>
<path d="M3145 7630 c16 -7 14 -9 -15 -10 -31 -1 -91 -30 -63 -30 7 0 15 5 18
10 3 6 21 10 40 10 19 0 37 -4 40 -10 3 -5 12 -10 18 -10 7 0 3 7 -7 15 -14
11 -16 15 -5 15 12 0 12 2 -1 10 -8 5 -22 9 -30 9 -10 0 -8 -3 5 -9z"/>
<path d="M4568 7603 c7 -3 16 -2 19 1 4 3 -2 6 -13 5 -11 0 -14 -3 -6 -6z"/>
<path d="M4670 7600 c0 -5 5 -10 11 -10 5 0 7 5 4 10 -3 6 -8 10 -11 10 -2 0
-4 -4 -4 -10z"/>
<path d="M2890 7570 c-13 -8 -13 -10 2 -10 9 0 20 5 23 10 8 13 -5 13 -25 0z"/>
<path d="M4825 7570 c3 -5 11 -10 16 -10 6 0 7 5 4 10 -3 6 -11 10 -16 10 -6
0 -7 -4 -4 -10z"/>
<path d="M2910 7554 c-22 -8 -28 -13 -15 -13 11 0 31 6 45 14 31 17 17 17 -30
-1z"/>
<path d="M2807 7535 c-10 -14 -13 -25 -7 -25 5 0 10 5 10 10 0 6 6 10 13 10 8
0 14 7 14 15 0 21 -9 18 -30 -10z"/>
<path d="M4873 7548 c7 -5 0 -8 -18 -8 -16 0 -37 -5 -45 -11 -12 -8 -11 -9 5
-5 11 2 39 8 62 11 53 8 63 21 18 21 -21 0 -30 -3 -22 -8z"/>
<path d="M2775 7540 c-3 -6 1 -7 9 -4 18 7 21 14 7 14 -6 0 -13 -4 -16 -10z"/>
<path d="M2855 7541 c-3 -5 -1 -13 5 -16 17 -11 80 -14 74 -4 -3 5 -21 9 -40
9 -21 0 -33 4 -29 10 3 6 4 10 1 10 -3 0 -7 -4 -11 -9z"/>
<path d="M4936 7542 c-2 -4 4 -8 14 -8 10 0 16 4 14 8 -3 4 -9 8 -14 8 -5 0
-11 -4 -14 -8z"/>
<path d="M2740 7531 c0 -10 19 -25 25 -20 1 2 -3 10 -11 17 -8 7 -14 8 -14 3z"/>
<path d="M4898 7523 c7 -3 16 -2 19 1 4 3 -2 6 -13 5 -11 0 -14 -3 -6 -6z"/>
<path d="M4848 7513 c7 -3 16 -2 19 1 4 3 -2 6 -13 5 -11 0 -14 -3 -6 -6z"/>
<path d="M2586 7493 c-4 -5 -22 -14 -39 -20 l-32 -13 35 6 c19 4 36 10 38 15
2 5 16 6 30 3 21 -4 24 -3 12 5 -18 13 -34 14 -44 4z"/>
<path d="M5175 7470 c-28 -7 -28 -8 -5 -9 14 0 32 4 40 9 17 11 8 11 -35 0z"/>
<path d="M2587 7460 c-42 -8 -53 -15 -38 -25 6 -3 11 -1 11 4 0 6 18 11 40 11
22 0 40 5 40 10 0 6 -3 9 -7 9 -5 -1 -25 -5 -46 -9z"/>
<path d="M5230 7461 c0 -6 -10 -11 -22 -11 -21 -1 -21 -2 -5 -11 13 -7 21 -6
32 5 9 9 11 17 5 21 -5 3 -10 1 -10 -4z"/>
<path d="M2451 7457 c2 -2 13 -9 23 -17 13 -10 17 -10 12 -2 -4 7 -1 12 8 12
9 0 16 -5 16 -11 0 -5 5 -7 11 -4 16 11 2 18 -38 22 -19 1 -34 1 -32 0z"/>
<path d="M2430 7440 c0 -5 5 -10 11 -10 5 0 7 5 4 10 -3 6 -8 10 -11 10 -2 0
-4 -4 -4 -10z"/>
<path d="M2598 7433 c7 -3 16 -2 19 1 4 3 -2 6 -13 5 -11 0 -14 -3 -6 -6z"/>
<path d="M2274 7395 c15 -8 33 -15 40 -15 16 1 -36 29 -54 30 -8 0 -2 -7 14
-15z"/>
<path d="M2223 7393 c-7 -3 -13 -13 -13 -23 0 -16 4 -17 31 -10 45 13 49 21 8
15 -23 -4 -28 -3 -15 3 21 9 10 22 -11 15z"/>
<path d="M5513 7387 c4 -10 2 -17 -5 -17 -6 0 -9 -3 -5 -6 3 -3 12 -2 20 3 13
7 13 10 -1 23 -14 13 -15 12 -9 -3z"/>
<path d="M5468 7383 c7 -3 16 -2 19 1 4 3 -2 6 -13 5 -11 0 -14 -3 -6 -6z"/>
<path d="M2171 7363 c0 -13 2 -14 6 -4 5 11 7 11 14 0 7 -11 9 -10 9 4 0 9 -7
17 -15 17 -8 0 -15 -8 -14 -17z"/>
<path d="M2108 7363 c6 -2 18 -2 25 0 6 3 1 5 -13 5 -14 0 -19 -2 -12 -5z"/>
<path d="M2298 7363 c7 -3 16 -2 19 1 4 3 -2 6 -13 5 -11 0 -14 -3 -6 -6z"/>
<path d="M5450 7360 c-18 -12 -2 -12 25 0 13 6 15 9 5 9 -8 0 -22 -4 -30 -9z"/>
<path d="M2074 7345 c-3 -8 -4 -20 -2 -27 3 -7 7 -1 10 15 6 29 1 36 -8 12z"/>
<path d="M5568 7353 c7 -3 16 -2 19 1 4 3 -2 6 -13 5 -11 0 -14 -3 -6 -6z"/>
<path d="M2025 7340 c-4 -6 -14 -9 -23 -5 -9 3 -13 3 -9 -1 4 -4 2 -13 -4 -21
-9 -9 -8 -13 0 -13 6 0 11 5 11 10 0 6 6 10 14 10 16 0 31 18 23 26 -3 3 -8 0
-12 -6z"/>
<path d="M1828 7293 c-10 -2 -18 -8 -18 -12 0 -12 25 -9 38 6 13 13 10 14 -20
6z"/>
<path d="M2020 7290 c-13 -8 -13 -10 2 -10 9 0 20 5 23 10 8 13 -5 13 -25 0z"/>
<path d="M5780 7290 c-23 -7 -23 -8 -3 -9 12 -1 25 4 28 9 3 6 5 10 3 9 -2 -1
-14 -5 -28 -9z"/>
<path d="M5835 7280 c-3 -5 -1 -10 4 -10 6 0 11 5 11 10 0 6 -2 10 -4 10 -3 0
-8 -4 -11 -10z"/>
<path d="M5870 7279 c0 -5 5 -7 10 -4 6 3 10 8 10 11 0 2 -4 4 -10 4 -5 0 -10
-5 -10 -11z"/>
<path d="M1858 7273 c7 -3 16 -2 19 1 4 3 -2 6 -13 5 -11 0 -14 -3 -6 -6z"/>
<path d="M1948 7273 c7 -3 16 -2 19 1 4 3 -2 6 -13 5 -11 0 -14 -3 -6 -6z"/>
<path d="M1665 7240 c-32 -20 -75 -29 -45 -10 24 15 -2 11 -30 -5 -25 -14 -24
-14 15 -11 22 2 48 7 58 11 10 4 17 4 16 -1 -6 -34 20 -45 51 -23 12 8 9 10
-13 6 -15 -2 -30 0 -33 4 -3 5 5 9 18 10 23 1 23 1 -2 9 l-25 7 25 11 c14 6
18 11 10 11 -8 0 -28 -9 -45 -19z"/>
<path d="M6034 7242 c3 -5 20 -13 38 -17 l33 -8 -28 -4 c-16 -3 -39 3 -53 12
-13 8 -24 11 -24 6 0 -5 6 -12 13 -14 9 -4 9 -7 0 -14 -8 -5 6 -8 34 -7 30 1
51 8 58 18 7 9 15 16 19 16 11 0 6 -28 -6 -33 -10 -4 -10 -6 -1 -6 13 -1 39
38 26 40 -4 1 -22 2 -39 4 -16 1 -41 6 -53 10 -15 4 -21 3 -17 -3z"/>
<path d="M1288 7213 c7 -3 16 -2 19 1 4 3 -2 6 -13 5 -11 0 -14 -3 -6 -6z"/>
<path d="M1545 7200 c3 -5 8 -10 11 -10 2 0 4 5 4 10 0 6 -5 10 -11 10 -5 0
-7 -4 -4 -10z"/>
<path d="M1478 7193 c12 -2 30 -2 40 0 9 3 -1 5 -23 4 -22 0 -30 -2 -17 -4z"/>
<path d="M1415 7180 c-3 -5 1 -10 10 -10 9 0 13 5 10 10 -3 6 -8 10 -10 10 -2
0 -7 -4 -10 -10z"/>
<path d="M1345 7165 c-24 -8 -32 -13 -20 -14 19 -2 19 -2 3 -15 -25 -18 -23
-29 2 -14 11 7 18 19 15 25 -3 8 4 13 18 12 12 0 16 -3 10 -6 -7 -2 -13 -10
-13 -16 0 -8 4 -7 12 1 7 7 26 13 43 13 30 2 30 2 2 6 -15 2 -25 9 -22 14 8
11 0 11 -50 -6z"/>
<path d="M6354 7161 c4 -5 20 -13 37 -16 23 -5 28 -9 18 -16 -9 -5 -10 -9 -2
-9 6 0 20 -3 30 -6 14 -5 15 -4 4 4 -8 6 -12 16 -9 24 4 8 -1 14 -11 14 -9 0
-29 3 -44 7 -18 5 -26 4 -23 -2z"/>
<path d="M1275 7139 c-11 -4 -14 -8 -7 -8 8 -1 10 -6 6 -13 -4 -7 1 -5 11 4
22 21 18 29 -10 17z"/>
<path d="M6326 7135 c4 -8 13 -15 21 -15 13 0 13 3 3 15 -7 8 -16 15 -21 15
-5 0 -6 -7 -3 -15z"/>
<path d="M1218 7133 c-10 -2 -18 -9 -18 -14 0 -6 10 -5 23 2 37 20 36 23 -5
12z"/>
<path d="M1400 7130 c-13 -9 -13 -10 0 -10 8 0 22 5 30 10 13 9 13 10 0 10 -8
0 -22 -5 -30 -10z"/>
<path d="M6370 7120 c0 -5 5 -10 10 -10 6 0 10 5 10 10 0 6 -4 10 -10 10 -5 0
-10 -4 -10 -10z"/>
<path d="M1358 7113 c7 -3 16 -2 19 1 4 3 -2 6 -13 5 -11 0 -14 -3 -6 -6z"/>
<path d="M1070 7090 c-11 -7 -11 -10 -2 -10 7 0 11 -4 8 -9 -4 -5 3 -7 14 -4
11 3 22 9 25 13 3 5 -5 6 -17 2 -14 -3 -19 -2 -14 6 9 14 6 15 -14 2z"/>
<path d="M6741 7086 c3 -4 26 -13 50 -20 l44 -15 -45 5 c-41 4 -43 3 -17 -7
15 -6 40 -8 55 -4 l27 8 -30 12 c-37 15 -92 29 -84 21z"/>
<path d="M1023 7073 c-7 -2 -13 -16 -13 -29 0 -16 -6 -24 -17 -24 -23 0 -14
-6 22 -14 24 -6 28 -5 18 5 -18 18 -16 46 5 58 17 11 7 13 -15 4z"/>
<path d="M886 7026 c-17 -43 -16 -46 3 -85 15 -28 26 -39 36 -35 8 4 12 10 9
15 -2 5 0 18 6 30 9 16 18 19 37 14 16 -4 22 -2 18 5 -3 5 -14 10 -23 11 -14
0 -13 2 3 9 19 8 19 9 -1 9 -12 1 -25 8 -28 17 -3 8 -2 12 3 9 5 -3 12 -1 16
5 3 5 -1 10 -9 10 -9 0 -16 5 -16 12 0 6 -3 8 -7 5 -3 -4 -12 -2 -18 3 -9 7
-17 -2 -29 -34z"/>
<path d="M991 7044 c0 -11 3 -14 6 -6 3 7 2 16 -1 19 -3 4 -6 -2 -5 -13z"/>
<path d="M1037 7053 c-10 -9 -9 -23 1 -23 5 0 9 7 9 15 0 17 -1 18 -10 8z"/>
<path d="M1085 7050 c-13 -6 -15 -9 -5 -9 8 0 22 4 30 9 18 12 2 12 -25 0z"/>
<path d="M6690 7040 c0 -5 5 -10 11 -10 5 0 7 5 4 10 -3 6 -8 10 -11 10 -2 0
-4 -4 -4 -10z"/>
<path d="M7138 6993 c7 -3 16 -2 19 1 4 3 -2 6 -13 5 -11 0 -14 -3 -6 -6z"/>
<path d="M1010 6980 c8 -5 20 -10 25 -10 6 0 3 5 -5 10 -8 5 -19 10 -25 10 -5
0 -3 -5 5 -10z"/>
<path d="M7095 6981 c29 -7 29 -7 8 -15 -13 -4 -33 -5 -45 -1 -17 4 -19 3 -8
-4 19 -12 95 -11 77 2 -7 5 2 6 23 3 l35 -6 -35 14 c-19 8 -46 14 -60 14 -22
0 -22 -1 5 -7z"/>
<path d="M7207 6963 c-3 -5 6 -9 20 -10 19 -1 22 1 12 8 -17 11 -26 11 -32 2z"/>
<path d="M7571 6954 c-1 -16 -86 -33 -106 -21 -13 7 -16 6 -11 -2 8 -12 -24
-15 -63 -4 -22 6 -23 7 -6 13 10 4 -8 6 -41 6 -47 -1 -58 -4 -49 -13 7 -6 21
-9 32 -7 11 3 40 -1 64 -10 24 -8 37 -16 29 -16 -33 -3 -58 -10 -86 -25 -40
-20 -42 -20 -47 18 l-4 32 -1 -32 c-2 -25 -9 -36 -33 -49 -18 -9 -34 -12 -38
-7 -3 4 -15 9 -26 11 -19 3 -20 3 -1 -11 18 -13 18 -14 -3 -20 -13 -3 -33 -2
-44 3 -12 5 -16 9 -8 9 8 1 12 4 8 7 -12 12 -28 -7 -18 -20 8 -9 7 -13 -2 -14
-25 -2 -164 -41 -222 -61 -39 -14 -62 -18 -69 -11 -6 6 -15 10 -20 10 -6 0 -4
-4 4 -10 19 -12 12 -18 -25 -22 -17 -2 -33 -7 -37 -13 -5 -6 -12 -4 -18 5 -9
13 -14 8 -12 -11 2 -14 -50 -20 -64 -8 -12 10 -13 9 -8 -6 5 -12 4 -16 -4 -11
-6 3 -14 2 -17 -4 -8 -12 -46 -3 -57 14 -5 7 -8 4 -8 -6 0 -10 8 -18 18 -19
15 0 -17 -15 -77 -34 -18 -5 -22 -4 -17 6 4 8 1 6 -7 -3 -18 -22 -27 -23 -27
-3 0 13 -2 13 -14 3 -10 -9 -11 -15 -2 -20 6 -4 7 -8 1 -8 -5 0 -16 4 -24 9
-11 7 -10 11 5 20 11 6 14 11 9 11 -22 0 -35 -23 -23 -39 7 -9 8 -13 4 -9 -5
4 -15 3 -22 -3 -8 -6 -21 -9 -29 -5 -11 4 -14 2 -9 -6 5 -8 2 -9 -9 -5 -10 3
-17 3 -17 -1 0 -5 -15 -13 -33 -20 -39 -14 -50 -15 -43 -4 2 4 -5 8 -17 9 -12
0 -16 -1 -9 -4 22 -9 13 -21 -25 -33 -21 -6 -53 -18 -71 -27 -18 -8 -46 -15
-62 -15 -16 -1 -27 -5 -23 -11 5 -8 -14 -5 -56 11 -9 3 -12 1 -7 -6 4 -7 15
-12 24 -13 9 0 -1 -7 -23 -15 -22 -9 -62 -24 -88 -34 -30 -12 -45 -15 -41 -7
4 7 -1 4 -12 -5 -19 -16 -97 -49 -121 -50 -7 -1 -13 -5 -13 -10 0 -4 -5 -8
-11 -8 -6 0 -8 7 -5 16 3 8 2 12 -4 9 -6 -3 -10 -12 -10 -19 0 -14 -97 -52
-124 -48 -11 1 -17 -1 -13 -4 9 -9 -122 -56 -134 -48 -5 3 -9 0 -9 -6 0 -8 -6
-8 -20 0 -14 7 -20 7 -20 0 0 -5 6 -10 13 -10 13 -1 -206 -78 -238 -85 -11 -2
-22 -4 -25 -5 -3 -1 -14 -2 -25 -1 -17 2 -17 0 -5 -8 22 -15 0 -14 -70 4 -43
11 -68 13 -97 5 l-38 -10 45 4 c25 2 61 -2 80 -10 33 -12 30 -13 -58 -12 -56
1 -87 5 -80 10 8 6 1 7 -19 3 -18 -4 -34 -2 -38 5 -4 6 -16 8 -27 4 -14 -4
-18 -3 -13 6 4 7 18 9 36 5 20 -5 29 -3 29 6 0 8 13 10 43 6 28 -4 37 -3 25 4
-9 5 -54 6 -100 3 -133 -9 -158 -7 -158 13 0 7 -4 13 -10 13 -5 0 -10 -5 -10
-11 0 -7 -7 -8 -17 -4 -10 4 -27 8 -38 10 -99 17 -145 30 -141 41 5 13 -22 29
-32 19 -3 -3 0 -5 7 -5 7 0 9 -5 6 -10 -4 -6 -12 -7 -18 -3 -7 4 -21 8 -32 9
-45 2 -105 16 -105 25 0 6 -5 7 -10 4 -6 -4 -26 -1 -45 5 -19 6 -49 13 -66 15
-18 3 -34 7 -38 11 -3 4 7 4 22 0 19 -4 26 -3 22 4 -3 5 2 10 11 10 24 0 15 6
-21 14 -19 4 -25 3 -17 -2 10 -7 3 -11 -23 -15 -39 -6 -74 1 -56 12 6 4 -11 7
-37 7 -56 0 -135 21 -127 34 3 4 -1 10 -7 13 -7 2 7 7 31 12 28 4 39 10 31 15
-7 5 -20 4 -29 0 -9 -5 -24 -11 -33 -14 -11 -3 -15 -11 -12 -21 5 -13 1 -15
-22 -9 -16 4 -33 11 -39 15 -5 5 -18 9 -30 10 -18 0 -18 1 4 10 18 7 29 5 44
-8 11 -10 17 -12 13 -5 -4 7 -1 12 8 12 9 0 16 4 16 8 0 14 -100 8 -109 -6 -7
-12 -71 -7 -71 7 0 3 -15 7 -33 8 -18 1 -48 8 -67 17 -32 15 -33 16 -8 12 16
-2 25 1 21 7 -3 5 -30 7 -60 5 -29 -3 -56 -1 -60 4 -3 5 -16 7 -30 3 -16 -4
-22 -2 -18 5 3 5 12 10 20 10 28 0 22 15 -7 16 -16 1 -24 -2 -18 -6 8 -5 7 -9
-5 -14 -9 -3 -22 -3 -27 0 -6 4 -24 9 -41 10 -16 2 -48 9 -71 16 -22 6 -45 10
-51 9 -5 -1 -4 3 3 11 10 10 16 10 32 0 25 -15 38 -16 22 0 -6 6 -33 13 -59
14 -36 2 -43 0 -28 -7 17 -8 17 -9 -5 -4 -14 2 -35 5 -48 5 -14 0 -20 4 -17
10 4 7 -2 9 -19 4 -17 -4 -26 -2 -26 5 0 7 -10 10 -22 9 -38 -5 -211 34 -196
43 7 5 22 9 33 10 13 0 8 4 -13 10 -22 7 -43 7 -60 0 -24 -9 -23 -10 13 -6 37
5 38 4 10 -5 -31 -10 -145 7 -145 22 0 4 -12 7 -27 6 -63 -3 -369 68 -399 92
-15 13 -16 13 -9 1 6 -10 4 -13 -6 -9 -8 3 -40 11 -71 18 -32 7 -58 16 -58 20
0 3 -16 6 -35 7 -20 1 -42 6 -49 12 -7 6 -21 9 -30 5 -18 -7 -22 6 -6 22 6 6
-2 9 -20 9 -15 0 -32 -4 -37 -9 -4 -5 -3 -7 2 -3 6 3 17 2 25 -4 24 -15 -6
-11 -90 11 -41 11 -86 23 -100 25 -14 3 -54 12 -90 20 -36 9 -83 18 -105 21
-22 3 -42 9 -45 12 -3 4 -18 8 -35 8 -16 1 -68 9 -115 19 -47 9 -94 17 -105
17 -19 -1 -19 0 -1 13 16 12 21 12 33 -1 16 -16 30 -17 97 -8 l48 7 -39 14
c-51 19 -65 20 -70 6 -3 -7 0 -13 7 -13 6 0 8 5 4 12 -5 8 -2 9 10 5 10 -4 20
-7 22 -7 2 0 4 -4 4 -10 0 -13 -50 -13 -70 0 -13 9 -13 11 -1 19 10 6 3 9 -22
8 -20 0 -32 -4 -27 -7 25 -15 -45 -30 -118 -26 l-77 5 65 -14 c176 -39 371
-87 367 -91 -3 -3 -100 14 -217 36 -116 23 -213 40 -216 38 -2 -3 87 -26 199
-52 843 -198 1275 -302 1412 -341 1050 -299 1688 -450 2027 -481 52 -4 82 -12
92 -23 26 -30 136 -248 168 -332 24 -67 32 -105 36 -186 4 -91 2 -112 -21
-186 -15 -47 -50 -122 -81 -173 l-54 -89 -56 2 c-30 1 -126 20 -213 43 -252
66 -488 117 -736 161 -579 101 -868 158 -1927 379 -520 108 -756 152 -960 180
-84 11 -157 20 -164 20 -6 0 0 9 13 19 l25 19 -54 16 c-66 20 -91 20 -135 2
-34 -14 -61 -49 -50 -65 3 -5 19 -5 38 1 64 20 382 -31 802 -127 328 -75 617
-147 611 -152 -2 -2 -291 50 -641 117 -351 67 -639 119 -641 117 -2 -2 90 -25
204 -52 179 -41 433 -104 717 -178 44 -12 82 -25 83 -29 2 -4 8 -6 13 -3 5 3
28 0 51 -6 24 -7 46 -12 49 -11 3 0 66 -15 140 -34 74 -19 146 -36 160 -39 24
-3 130 -28 259 -59 30 -8 74 -17 98 -21 26 -4 40 -11 35 -18 -4 -6 0 -8 11 -4
24 10 111 -4 94 -14 -8 -5 1 -6 21 -2 27 5 32 3 26 -7 -5 -9 -4 -11 3 -6 18
11 107 -4 91 -16 -9 -5 -5 -6 13 -2 15 3 33 2 40 -2 7 -4 22 -8 33 -9 66 -4
76 -6 70 -15 -4 -6 5 -7 23 -4 17 4 32 1 36 -5 4 -6 12 -9 17 -6 5 4 55 -3
112 -14 56 -12 113 -23 127 -26 134 -24 267 -50 320 -62 36 -8 75 -14 88 -14
13 1 21 -3 18 -7 -3 -5 9 -6 26 -4 23 4 29 2 23 -8 -5 -9 -4 -11 3 -6 6 4 47
1 91 -6 69 -11 78 -14 68 -28 -9 -12 -9 -13 3 -2 8 6 23 12 35 12 17 0 18 -2
5 -11 -12 -8 -10 -9 7 -4 21 6 177 -18 213 -32 8 -3 24 -6 35 -7 51 -5 274
-50 270 -55 -2 -4 15 -5 38 -3 33 2 39 1 27 -8 -12 -9 -7 -10 19 -5 20 4 31 3
28 -2 -3 -5 8 -8 26 -5 26 3 29 1 17 -8 -13 -10 -12 -11 4 -6 28 9 88 -4 83
-19 -3 -6 1 -12 8 -12 7 0 11 6 9 12 -6 15 41 38 86 42 19 2 80 15 134 29 68
17 103 21 110 14 5 -5 15 -10 21 -10 5 0 1 6 -9 12 -17 10 -14 13 30 29 58 22
57 22 49 7 -4 -7 1 -4 9 6 9 11 16 16 16 12 0 -5 7 -3 15 4 8 6 20 8 26 4 8
-5 9 -3 4 6 -6 9 -2 10 15 5 14 -4 20 -3 17 2 -10 16 36 32 57 21 10 -5 20 -7
23 -4 4 3 1 6 -5 6 -7 0 -12 5 -12 10 0 7 7 7 21 -1 16 -8 24 -8 33 1 8 8 7
10 -5 5 -10 -4 -20 -2 -24 4 -6 10 10 15 43 14 7 -1 11 2 8 5 -9 9 54 33 67
25 6 -4 7 -1 2 7 -6 10 -3 12 14 7 13 -3 20 -3 17 0 -7 7 53 40 80 45 10 2 25
9 32 16 8 7 18 10 23 7 5 -4 9 -1 9 4 0 6 4 11 9 11 4 0 39 14 77 32 38 17 75
31 82 29 6 -1 12 3 12 10 0 6 8 9 20 6 11 -3 18 -1 15 3 -8 12 33 33 47 24 7
-4 8 -3 4 4 -7 11 7 16 41 15 7 -1 11 2 8 6 -2 4 21 20 51 34 31 15 53 22 49
15 -4 -7 0 -6 7 3 8 10 29 23 49 32 30 12 38 12 59 -1 22 -12 23 -12 8 1 -22
18 -23 31 -2 23 8 -3 12 -2 9 4 -6 9 269 148 455 230 90 40 480 201 583 242
27 10 85 37 130 60 45 23 85 42 88 42 3 1 16 13 30 27 13 14 30 24 37 22 8 -3
10 1 5 13 -4 12 -3 15 5 10 7 -4 12 -1 12 8 0 8 4 18 10 21 6 4 7 -1 3 -12 -6
-15 -5 -16 9 -3 10 10 13 19 7 26 -7 8 -1 19 18 34 15 12 22 18 14 14 -10 -5
-8 2 5 25 10 17 21 31 24 31 4 0 7 6 7 13 1 6 9 50 19 97 25 124 22 271 -9
390 -23 88 -74 219 -76 194z m-13 -64 c0 -22 -3 -53 -8 -70 -8 -29 3 -43 14
-17 3 6 5 -14 3 -46 -1 -31 1 -58 5 -60 9 -2 13 -202 6 -267 -10 -94 -8 -88
-17 -66 -7 19 -8 19 -13 -2 -4 -12 -2 -22 4 -22 5 0 6 -6 1 -12 -4 -7 -8 -19
-9 -26 -3 -18 -47 -82 -57 -82 -9 0 9 36 23 45 13 8 1 35 -16 35 -7 0 -21 -12
-31 -27 -19 -29 -26 -56 -12 -47 5 3 9 10 9 15 0 11 25 39 34 39 3 0 -1 -12
-9 -27 -10 -20 -11 -30 -3 -40 8 -11 7 -12 -7 -7 -12 5 -16 4 -11 -4 8 -14
-47 -76 -97 -108 l-37 -25 -26 28 c-14 16 -23 22 -19 16 12 -25 -13 -52 -47
-50 -22 1 -32 -3 -33 -14 -5 -33 10 -41 37 -19 15 11 28 17 31 13 2 -5 2 -3 1
4 -2 7 1 15 6 18 6 4 10 1 10 -4 0 -6 5 -11 12 -11 9 0 9 3 0 12 -14 14 -16
28 -3 28 5 0 12 -8 15 -17 8 -21 -30 -54 -53 -45 -10 4 -12 1 -6 -8 5 -8 4
-11 -2 -7 -6 4 -14 0 -17 -9 -4 -9 -13 -14 -22 -10 -8 3 -12 2 -9 -4 3 -6 0
-10 -9 -10 -8 0 -22 -3 -32 -7 -10 -4 -15 -2 -11 3 3 5 -3 10 -13 10 -10 0
-16 -6 -13 -12 3 -8 -2 -11 -16 -7 -12 3 -21 9 -21 13 0 4 -11 7 -25 6 -14 0
-25 -4 -25 -8 0 -5 -8 -8 -17 -8 -10 -1 -29 -8 -43 -16 -17 -10 -19 -13 -5 -9
59 20 88 25 108 19 21 -7 21 -7 2 -15 -11 -4 -31 -5 -45 -2 -20 4 -22 2 -10
-6 13 -9 12 -11 -5 -12 -11 -1 -31 -1 -45 0 -15 1 -20 -2 -14 -6 7 -5 -7 -14
-36 -24 -29 -9 -48 -11 -47 -5 1 6 -9 11 -23 13 -15 1 -18 0 -7 -3 20 -6 18
-25 -3 -32 -8 -3 -10 0 -5 8 5 9 4 11 -3 6 -6 -4 -20 -2 -31 3 -20 11 -24 -1
-9 -25 8 -12 -59 -37 -74 -28 -4 3 -8 0 -8 -6 0 -8 -10 -10 -27 -6 -21 5 -24
4 -13 -4 13 -8 13 -10 -1 -10 -9 0 -30 -7 -47 -16 -18 -8 -37 -12 -43 -8 -7 4
-9 3 -6 -3 9 -14 -48 -34 -70 -26 -10 4 -14 2 -10 -4 7 -12 -57 -39 -80 -35
-7 2 -13 -2 -13 -7 0 -6 -7 -8 -15 -5 -8 4 -15 2 -15 -4 0 -13 -79 -44 -92
-36 -6 4 -8 2 -5 -3 9 -15 -24 -26 -37 -13 -8 8 -5 9 9 5 16 -5 17 -5 5 3 -17
13 -33 5 -26 -13 5 -14 -29 -32 -48 -26 -5 1 -13 -4 -18 -11 -7 -10 -9 -10 -5
2 2 8 12 14 22 13 13 -1 14 2 5 10 -9 9 -18 5 -37 -18 -29 -33 -99 -69 -116
-58 -6 4 -7 1 -2 -7 5 -8 3 -11 -5 -8 -7 2 -14 12 -16 21 -2 14 3 16 19 12 18
-5 19 -4 6 4 -24 15 -114 -30 -122 -61 l-6 -23 18 23 c11 15 29 25 49 26 38 3
41 -7 7 -22 -17 -8 -25 -8 -25 -1 0 6 -5 7 -10 4 -6 -4 -8 -11 -5 -16 4 -5 1
-9 -5 -9 -7 0 -48 -18 -92 -40 -43 -22 -84 -37 -90 -34 -7 4 -8 2 -4 -4 4 -7
2 -12 -3 -12 -19 0 -26 5 -23 14 2 5 -8 1 -23 -8 -23 -15 -29 -14 -26 7 2 11
-53 -19 -69 -38 -10 -12 -11 -18 -1 -28 10 -9 11 -9 6 4 -8 22 41 55 60 39 9
-8 15 -8 20 0 7 12 25 14 25 3 -1 -9 -89 -54 -105 -54 -5 0 -17 -7 -27 -15 -9
-9 -18 -11 -22 -6 -3 6 -1 12 5 14 6 2 -21 4 -60 3 l-70 0 26 -22 c29 -25 48
-29 59 -12 4 8 -1 9 -17 4 -22 -7 -22 -6 -10 9 9 11 18 13 24 7 5 -5 16 -7 23
-4 8 3 14 0 14 -6 0 -6 -4 -11 -10 -11 -5 0 -32 -14 -60 -30 -28 -17 -59 -32
-69 -33 -10 -1 -40 -16 -67 -33 -83 -52 -137 -80 -189 -99 -27 -10 -54 -22
-59 -27 -16 -13 -29 -9 -23 7 4 8 1 17 -5 21 -7 4 -8 3 -4 -4 4 -7 2 -12 -3
-12 -6 0 -11 2 -11 5 0 8 32 57 47 73 6 6 15 22 18 33 5 16 10 18 18 9 9 -8 7
-15 -6 -25 -17 -13 -16 -15 23 -26 35 -11 39 -14 24 -21 -13 -5 -8 -6 15 -3
18 2 39 9 45 16 8 9 7 10 -7 5 -10 -3 -30 -3 -44 0 -22 6 -23 8 -9 16 9 5 16
14 16 21 0 7 -4 6 -10 -3 -5 -8 -12 -11 -16 -7 -4 4 0 15 9 25 10 10 17 23 17
28 -1 5 -10 -2 -20 -15 -13 -15 -20 -18 -20 -9 0 8 9 25 20 38 11 13 20 28 20
34 0 6 -7 0 -16 -12 -8 -12 -19 -20 -24 -17 -11 7 0 45 12 42 6 -1 13 4 16 12
3 9 0 11 -8 6 -8 -5 -11 -3 -8 6 3 8 11 13 17 11 8 -1 9 3 2 15 -5 11 -5 40 0
76 6 37 6 88 -1 139 -5 44 -7 85 -3 91 4 6 8 23 9 37 3 21 1 22 -7 7 -6 -9 -7
-22 -3 -29 4 -7 3 -8 -4 -4 -7 4 -12 13 -12 19 0 7 -14 41 -30 76 -17 36 -28
71 -25 79 3 8 -3 16 -15 19 -12 3 -27 18 -36 34 -8 16 -19 29 -24 29 -6 0 -10
5 -10 11 0 6 -10 19 -22 30 -13 10 -17 18 -10 19 6 0 12 -6 12 -12 0 -9 4 -8
10 2 6 10 10 11 10 3 0 -7 11 -13 24 -13 14 0 28 -4 31 -10 3 -5 11 -10 17
-10 7 0 6 6 -2 15 -7 8 -23 15 -36 15 -42 0 -26 15 29 27 79 16 93 20 124 36
43 23 143 56 143 49 0 -4 4 -2 8 4 10 15 133 58 160 56 13 -1 21 2 18 7 -3 4
20 17 52 28 43 15 63 17 80 10 18 -8 27 -7 40 6 10 11 12 17 4 17 -7 0 -12 -4
-12 -10 0 -13 -27 -13 -35 0 -4 6 -3 10 2 8 4 -1 25 6 47 15 44 20 56 21 56 7
0 -5 5 -10 11 -10 6 0 9 7 5 15 -7 19 -1 19 31 -2 15 -10 24 -12 20 -6 -6 9 4
15 33 19 22 4 40 10 40 14 0 8 -43 7 -50 -1 -10 -13 -50 -20 -50 -10 0 6 3 10
8 9 4 -1 17 3 30 10 12 7 27 10 32 7 6 -3 10 -2 10 4 0 13 72 33 128 36 24 1
46 6 50 10 4 4 -11 5 -33 1 -33 -5 -36 -4 -16 4 14 6 32 12 40 14 9 1 34 10
56 20 22 9 49 18 60 19 11 1 22 5 25 8 12 14 220 80 231 74 7 -5 10 -4 6 2 -4
6 2 13 13 16 14 4 20 0 21 -11 0 -12 3 -10 9 6 11 26 11 26 45 10 19 -8 22
-14 13 -20 -10 -8 -10 -9 1 -6 17 5 23 35 9 45 -7 3 -8 1 -4 -5 4 -7 3 -12 -3
-12 -5 0 -12 4 -15 9 -7 10 82 43 94 36 5 -3 10 -1 12 4 1 4 14 11 28 15 16 5
20 4 12 -2 -9 -6 -3 -9 18 -9 16 0 30 4 30 9 0 4 -3 7 -7 7 -26 -4 -23 4 5 16
18 8 40 11 49 8 9 -4 14 -2 10 3 -4 8 49 30 96 40 4 1 10 3 15 4 4 1 10 2 13
2 85 -11 134 -8 153 9 11 11 15 19 8 19 -6 0 -13 -4 -17 -10 -3 -5 -12 -7 -19
-4 -8 3 -17 1 -21 -5 -3 -6 -14 -11 -23 -11 -15 0 -15 2 -2 10 10 6 11 10 3
10 -7 0 -13 5 -13 11 0 6 7 8 16 5 8 -3 12 -2 9 4 -6 9 14 14 43 11 6 -1 12 2
12 8 0 5 14 14 30 20 24 8 29 7 25 -2 -4 -7 0 -4 8 6 9 11 21 15 32 10 14 -5
16 -3 10 7 -5 9 -4 11 4 6 6 -4 23 2 37 13 29 23 49 28 38 10 -4 -7 -1 -10 7
-7 8 3 13 11 11 17 -1 7 2 10 8 6 5 -3 10 -1 10 5 0 7 7 9 16 6 8 -3 12 -2 9
4 -3 6 -2 10 4 10 5 0 12 -4 16 -9 7 -12 45 -10 45 2 0 5 10 5 21 2 15 -5 19
-4 15 4 -9 14 -39 14 -54 -1 -6 -6 -14 -9 -18 -6 -9 9 49 36 65 30 9 -3 11 0
6 8 -6 10 -4 12 8 7 10 -3 17 -2 17 3 0 5 7 7 15 4 8 -4 15 -1 15 6 0 7 8 9
23 5 20 -5 20 -5 -3 10 l-25 16 25 -7 c14 -3 22 -3 18 1 -7 7 36 42 53 44 4 1
7 -17 7 -39z m-591 -236 c-3 -3 -12 -4 -19 -1 -8 3 -5 6 6 6 11 1 17 -2 13 -5z
m-3460 -240 c-3 -3 -12 -4 -19 -1 -8 3 -5 6 6 6 11 1 17 -2 13 -5z m760 -230
c-3 -3 -12 -4 -19 -1 -8 3 -5 6 6 6 11 1 17 -2 13 -5z m46 -11 c-7 -2 -19 -2
-25 0 -7 3 -2 5 12 5 14 0 19 -2 13 -5z m50 -10 c-7 -2 -19 -2 -25 0 -7 3 -2
5 12 5 14 0 19 -2 13 -5z m387 -33 c-8 -5 -22 -10 -30 -10 -13 0 -13 1 0 10 8
5 22 10 30 10 13 0 13 -1 0 -10z m2490 -85 c-7 -8 -17 -15 -23 -15 -6 0 -2 7
9 15 25 19 30 19 14 0z m-2281 -74 c34 -48 99 -192 116 -256 8 -32 15 -95 14
-140 l0 -80 -28 86 c-36 110 -87 206 -156 294 -30 39 -64 82 -75 98 l-21 27
65 0 c60 0 66 -2 85 -29z m1866 -101 c3 -6 -1 -7 -9 -4 -18 7 -21 14 -7 14 6
0 13 -4 16 -10z m-820 -310 c-3 -5 -12 -10 -18 -10 -7 0 -6 4 3 10 19 12 23
12 15 0z m-3928 -46 c-3 -3 -12 -4 -19 -1 -8 3 -5 6 6 6 11 1 17 -2 13 -5z
m3083 -264 c0 -5 -4 -10 -10 -10 -5 0 -10 5 -10 10 0 6 5 10 10 10 6 0 10 -4
10 -10z m5 -60 c3 -5 -1 -10 -10 -10 -9 0 -13 5 -10 10 3 6 8 10 10 10 2 0 7
-4 10 -10z m-199 -98 c-25 -49 -52 -79 -62 -70 -5 5 74 118 83 118 2 0 -8 -22
-21 -48z m104 -11 c0 -5 -10 -7 -22 -3 -14 3 -19 2 -14 -6 4 -7 2 -12 -3 -12
-12 0 -14 13 -4 23 10 10 43 8 43 -2z m-773 -57 c-3 -3 -12 -4 -19 -1 -8 3 -5
6 6 6 11 1 17 -2 13 -5z m46 -11 c-7 -2 -19 -2 -25 0 -7 3 -2 5 12 5 14 0 19
-2 13 -5z m189 -32 c84 -16 169 -32 189 -35 22 -4 36 -12 36 -21 0 -8 -4 -15
-9 -15 -4 0 -8 4 -8 9 0 5 -10 9 -22 9 -25 0 -350 72 -357 78 -8 8 19 4 171
-25z"/>
<path d="M7525 6900 c-3 -6 1 -7 9 -4 18 7 21 14 7 14 -6 0 -13 -4 -16 -10z"/>
<path d="M7535 6880 c-4 -6 -11 -7 -17 -4 -7 4 -8 2 -4 -5 6 -9 11 -9 22 0 14
11 18 19 10 19 -3 0 -8 -5 -11 -10z"/>
<path d="M7537 6853 c-4 -3 -7 -13 -7 -22 1 -13 3 -13 11 2 11 19 8 33 -4 20z"/>
<path d="M7465 6841 c-3 -6 -12 -11 -18 -10 -25 3 -38 -1 -32 -11 6 -10 23 -8
63 7 7 3 12 -4 12 -18 0 -18 3 -20 12 -11 10 10 8 17 -9 33 -14 14 -23 17 -28
10z"/>
<path d="M7521 6794 c0 -11 3 -14 6 -6 3 7 2 16 -1 19 -3 4 -6 -2 -5 -13z"/>
<path d="M7458 6793 c7 -3 16 -2 19 1 4 3 -2 6 -13 5 -11 0 -14 -3 -6 -6z"/>
<path d="M7544 6769 c-3 -6 -1 -16 5 -22 8 -8 11 -5 11 11 0 24 -5 28 -16 11z"/>
<path d="M7220 6755 c0 -3 10 -10 23 -16 19 -8 18 -9 -9 -5 -19 3 -39 -1 -50
-9 -11 -8 -14 -15 -8 -15 5 0 16 6 22 12 8 8 15 9 20 3 4 -6 21 -11 37 -12 22
-2 26 0 15 7 -13 9 -13 10 0 10 9 1 5 6 -10 15 -27 15 -40 18 -40 10z"/>
<path d="M7523 6696 c-1 -32 3 -68 7 -80 7 -15 8 -9 4 20 -4 24 -1 51 6 64 7
13 7 20 2 16 -6 -3 -12 4 -14 16 -2 13 -4 -3 -5 -36z"/>
<path d="M7550 6670 c0 -11 4 -20 9 -20 5 0 7 9 4 20 -3 11 -7 20 -9 20 -2 0
-4 -9 -4 -20z"/>
<path d="M7562 6610 c0 -14 2 -19 5 -12 2 6 2 18 0 25 -3 6 -5 1 -5 -13z"/>
<path d="M6861 6597 c-6 -8 -8 -17 -4 -20 11 -12 19 -7 20 13 2 24 -1 25 -16
7z"/>
<path d="M6808 6593 c6 -2 18 -2 25 0 6 3 1 5 -13 5 -14 0 -19 -2 -12 -5z"/>
<path d="M6746 6575 c-3 -8 -1 -15 4 -15 6 0 10 7 10 15 0 8 -2 15 -4 15 -2 0
-6 -7 -10 -15z"/>
<path d="M6780 6565 c-9 -10 -9 -15 -1 -15 6 0 11 5 11 11 0 7 12 8 33 4 24
-5 28 -4 17 4 -21 15 -46 13 -60 -4z"/>
<path d="M7526 6545 c8 -37 14 -45 14 -19 0 10 -5 26 -10 34 -8 11 -9 7 -4
-15z"/>
<path d="M6594 6526 c-15 -12 -14 -14 14 -24 19 -7 32 -7 32 -1 0 5 -9 9 -21
9 -11 0 -18 4 -14 10 3 5 12 7 20 3 8 -3 15 -3 15 0 0 12 -30 14 -46 3z"/>
<path d="M6503 6485 c0 -8 4 -15 9 -15 4 0 8 7 8 15 0 8 -4 15 -8 15 -5 0 -9
-7 -9 -15z"/>
<path d="M7526 6466 c-4 -21 -5 -40 -2 -43 7 -8 18 42 14 64 -3 11 -7 3 -12
-21z"/>
<path d="M6590 6480 c-8 -5 -10 -10 -5 -10 6 0 17 5 25 10 8 5 11 10 5 10 -5
0 -17 -5 -25 -10z"/>
<path d="M7551 6457 c-1 -16 -6 -37 -11 -48 -7 -12 -7 -19 -1 -19 12 0 25 63
18 82 -3 7 -6 0 -6 -15z"/>
<path d="M6352 6441 c-11 -7 -11 -9 2 -14 10 -4 16 -1 16 8 0 17 -1 17 -18 6z"/>
<path d="M6316 6423 c-6 -14 -5 -15 5 -6 7 7 10 15 7 18 -3 3 -9 -2 -12 -12z"/>
<path d="M6348 6409 c4 -4 18 -10 32 -14 17 -4 21 -3 11 3 -11 8 -11 10 0 14
8 3 0 5 -18 4 -18 -1 -29 -4 -25 -7z"/>
<path d="M6236 6402 c-3 -4 4 -9 15 -9 23 -2 25 3 4 10 -8 4 -16 3 -19 -1z"/>
<path d="M6110 6350 c8 -5 24 -10 34 -10 26 0 18 6 -19 14 -22 5 -26 4 -15 -4z"/>
<path d="M7520 6331 c0 -11 4 -22 9 -25 4 -3 6 6 3 19 -5 30 -12 33 -12 6z"/>
<path d="M7445 6299 c-11 -16 -1 -19 13 -3 7 8 8 14 3 14 -5 0 -13 -5 -16 -11z"/>
<path d="M5870 6240 c-18 -12 -2 -12 25 0 13 6 15 9 5 9 -8 0 -22 -4 -30 -9z"/>
<path d="M5716 6186 c-28 -15 -40 -18 -43 -8 -3 6 -17 12 -31 11 l-27 -1 25
-8 25 -8 -25 -1 c-16 -1 -21 -4 -13 -9 26 -16 117 9 127 35 3 7 4 13 3 12 -1
-1 -19 -11 -41 -23z"/>
<path d="M7441 6194 c0 -11 3 -14 6 -6 3 7 2 16 -1 19 -3 4 -6 -2 -5 -13z"/>
<path d="M5575 6160 c27 -12 43 -12 25 0 -8 5 -22 9 -30 9 -10 0 -8 -3 5 -9z"/>
<path d="M5718 6153 c7 -3 16 -2 19 1 4 3 -2 6 -13 5 -11 0 -14 -3 -6 -6z"/>
<path d="M7338 6142 c-44 -5 -32 -21 12 -16 31 3 39 1 34 -9 -5 -8 -2 -7 9 2
18 15 23 26 7 16 -5 -3 -10 -2 -10 3 0 9 -7 10 -52 4z"/>
<path d="M5480 6130 c0 -5 -10 -10 -22 -10 -12 0 -19 -3 -15 -6 3 -4 23 -3 43
1 28 5 34 9 23 16 -19 12 -29 11 -29 -1z"/>
<path d="M5393 6103 c-7 -2 -13 -9 -13 -15 0 -7 15 -8 41 -4 24 4 38 3 35 -3
-3 -5 9 -4 29 2 19 6 35 14 35 18 0 5 -10 5 -22 0 -13 -4 -34 -4 -48 0 -30 8
-41 9 -57 2z m34 -9 c-3 -3 -12 -4 -19 -1 -8 3 -5 6 6 6 11 1 17 -2 13 -5z"/>
<path d="M7330 6099 c0 -5 5 -7 10 -4 6 3 10 8 10 11 0 2 -4 4 -10 4 -5 0 -10
-5 -10 -11z"/>
<path d="M5328 6073 c7 -3 16 -2 19 1 4 3 -2 6 -13 5 -11 0 -14 -3 -6 -6z"/>
<path d="M5237 6043 c-3 -5 6 -9 20 -10 19 -1 22 1 12 8 -17 11 -26 11 -32 2z"/>
<path d="M5192 6021 c-11 -7 -10 -9 3 -14 9 -4 14 -3 10 2 -3 5 1 12 7 14 7 3
9 6 3 6 -5 0 -16 -3 -23 -8z"/>
<path d="M5244 6005 c11 -8 25 -15 30 -15 6 0 5 4 -3 9 -11 7 -11 9 0 14 8 3
1 6 -16 6 -29 0 -29 0 -11 -14z"/>
<path d="M5155 6000 c27 -12 43 -12 25 0 -8 5 -22 9 -30 9 -10 0 -8 -3 5 -9z"/>
<path d="M5106 5988 c3 -5 10 -6 15 -3 13 9 11 12 -6 12 -8 0 -12 -4 -9 -9z"/>
<path d="M5063 5938 c10 -8 18 -18 17 -23 -6 -27 0 -37 13 -26 8 6 16 9 18 6
3 -2 6 6 6 18 2 19 1 20 -8 5 -14 -25 -26 -22 -25 4 1 15 -6 24 -19 26 -19 4
-19 3 -2 -10z"/>
<path d="M6730 5896 c6 -6 18 -5 32 1 21 10 21 10 -9 9 -19 -1 -28 -5 -23 -10z"/>
<path d="M6745 5870 c18 -8 18 -9 -5 -9 -19 -1 -22 -3 -11 -10 9 -6 22 -6 34
1 16 8 17 12 6 19 -8 5 -21 8 -29 8 -10 0 -8 -3 5 -9z"/>
<path d="M5130 5816 c0 -6 4 -17 9 -24 6 -11 10 -10 15 5 7 17 8 17 23 -2 14
-17 15 -18 9 -2 -3 10 -6 22 -6 25 0 4 -11 8 -25 8 -14 1 -25 -3 -25 -10z"/>
<path d="M6480 5813 c0 -12 5 -25 11 -28 16 -11 17 -2 2 25 -12 24 -13 24 -13
3z"/>
<path d="M6535 5821 c19 -8 18 -9 -5 -13 -17 -4 -11 -6 18 -7 23 0 42 3 42 8
0 5 8 12 18 14 15 4 15 5 0 6 -9 0 -20 -3 -23 -9 -3 -5 -11 -10 -16 -10 -6 0
-8 4 -5 8 2 4 -7 8 -22 9 -23 1 -24 1 -7 -6z"/>
<path d="M6620 5810 c-13 -8 -13 -10 2 -10 9 0 20 5 23 10 8 13 -5 13 -25 0z"/>
<path d="M6530 5780 c-12 -8 -9 -9 12 -8 15 1 24 6 22 10 -7 10 -16 10 -34 -2z"/>
<path d="M5163 5761 c0 -11 5 -18 9 -15 4 3 5 11 1 19 -7 21 -12 19 -10 -4z"/>
<path d="M6380 5739 c11 -8 6 -9 -20 -5 -26 5 -30 4 -15 -3 19 -9 19 -10 -3
-10 -28 -1 -25 -25 4 -28 18 -3 18 -2 -1 6 -18 7 -16 9 15 17 19 4 38 9 43 10
4 1 12 2 18 3 5 0 7 6 3 12 -5 8 -9 8 -14 -1 -5 -9 -9 -9 -14 -1 -4 6 -13 11
-19 11 -7 0 -6 -4 3 -11z"/>
<path d="M6081 5654 c0 -11 3 -14 6 -6 3 7 2 16 -1 19 -3 4 -6 -2 -5 -13z"/>
<path d="M5927 5576 c-4 -10 1 -12 14 -9 23 6 24 9 5 16 -8 3 -17 0 -19 -7z"/>
<path d="M6070 5579 c0 -5 5 -7 10 -4 6 3 10 8 10 11 0 2 -4 4 -10 4 -5 0 -10
-5 -10 -11z"/>
<path d="M5808 5503 c7 -3 16 -2 19 1 4 3 -2 6 -13 5 -11 0 -14 -3 -6 -6z"/>
<path d="M5763 5478 c0 -13 1 -17 4 -10 3 6 14 12 26 12 18 0 19 2 7 10 -24
16 -36 12 -37 -12z"/>
<path d="M5835 5480 c3 -5 -2 -10 -12 -10 -16 -1 -66 -30 -51 -30 19 0 78 32
73 40 -3 6 -8 10 -11 10 -3 0 -2 -4 1 -10z"/>
<path d="M5610 5420 c-8 -5 -12 -11 -10 -14 3 -2 14 2 24 10 22 15 10 19 -14
4z"/>
<path d="M5454 5301 c20 -22 26 -25 26 -13 0 4 -10 13 -22 21 -23 14 -23 14
-4 -8z"/>
<path d="M5444 5282 c3 -5 0 -13 -6 -15 -9 -4 -10 -6 -1 -6 17 -1 25 16 12 25
-7 4 -9 3 -5 -4z"/>
<path d="M5316 5261 c-15 -6 -16 -9 -5 -13 8 -3 20 1 27 8 14 15 7 17 -22 5z"/>
<path d="M5349 5249 c-12 -7 -12 -9 1 -10 10 0 8 -3 -5 -9 -13 -6 -15 -9 -5
-9 8 0 23 6 33 13 14 11 15 15 4 19 -8 3 -20 1 -28 -4z"/>
<path d="M5275 5190 c-4 -6 -14 -8 -23 -6 -10 3 -24 1 -32 -4 -9 -6 -2 -8 23
-6 38 3 55 11 45 22 -3 3 -9 0 -13 -6z"/>
<path d="M5101 5148 c-6 -17 -4 -24 8 -29 21 -8 43 21 29 38 -15 19 -28 16
-37 -9z m29 -8 c0 -5 -4 -10 -10 -10 -5 0 -10 5 -10 10 0 6 5 10 10 10 6 0 10
-4 10 -10z"/>
<path d="M1078 6943 c7 -3 16 -2 19 1 4 3 -2 6 -13 5 -11 0 -14 -3 -6 -6z"/>
<path d="M1120 6944 c0 -2 9 -8 20 -14 11 -6 20 -7 20 -2 0 6 -9 12 -20 15
-11 3 -20 3 -20 1z"/>
<path d="M1410 6940 c8 -5 20 -10 25 -10 6 0 3 5 -5 10 -8 5 -19 10 -25 10 -5
0 -3 -5 5 -10z"/>
<path d="M7317 6903 c-13 -12 -7 -26 6 -15 6 5 23 12 37 15 22 4 21 4 -6 6
-17 0 -34 -2 -37 -6z"/>
<path d="M1403 6893 c9 -2 23 -2 30 0 6 3 -1 5 -18 5 -16 0 -22 -2 -12 -5z"/>
<path d="M1590 6865 c0 -6 29 -18 70 -29 19 -6 21 -5 10 3 -12 8 -8 11 17 11
17 0 34 4 37 8 2 4 -15 8 -39 8 -25 0 -39 -4 -32 -8 18 -11 -6 -10 -37 2 -14
5 -26 7 -26 5z"/>
<path d="M1778 6863 c7 -3 16 -2 19 1 4 3 -2 6 -13 5 -11 0 -14 -3 -6 -6z"/>
<path d="M7050 6860 c-9 -6 -10 -10 -3 -10 6 0 15 5 18 10 8 12 4 12 -15 0z"/>
<path d="M7090 6860 c0 -6 -12 -15 -26 -21 -15 -5 -25 -12 -22 -14 8 -8 63 19
66 33 1 6 -2 12 -8 12 -5 0 -10 -5 -10 -10z"/>
<path d="M7127 6859 c7 -7 15 -10 18 -7 3 3 -2 9 -12 12 -14 6 -15 5 -6 -5z"/>
<path d="M7188 6863 c7 -3 16 -2 19 1 4 3 -2 6 -13 5 -11 0 -14 -3 -6 -6z"/>
<path d="M1790 6850 l-35 -7 32 -2 c17 0 35 4 38 9 3 6 5 9 3 9 -2 -1 -19 -5
-38 -9z"/>
<path d="M1710 6840 l-25 -8 27 -1 c15 -1 30 4 33 9 7 11 0 11 -35 0z"/>
<path d="M904 6818 c22 -54 71 -218 86 -288 27 -124 33 -215 20 -295 -20 -128
-74 -213 -173 -277 l-52 -33 44 -3 c68 -5 138 34 178 100 47 77 60 114 73 205
20 134 -4 287 -68 433 -28 66 -134 218 -108 158z"/>
<path d="M1756 6821 c-5 -7 -1 -8 9 -5 8 4 22 1 30 -6 13 -11 35 -7 24 4 -11
12 -58 16 -63 7z"/>
<path d="M7060 6810 c-21 -7 -21 -8 -5 -9 11 0 27 4 35 9 18 11 5 11 -30 0z"/>
<path d="M2005 6780 c-4 -6 3 -10 14 -10 25 0 27 6 6 13 -8 4 -17 2 -20 -3z"/>
<path d="M2058 6783 c7 -3 16 -2 19 1 4 3 -2 6 -13 5 -11 0 -14 -3 -6 -6z"/>
<path d="M2125 6780 c-3 -5 1 -10 10 -10 9 0 13 5 10 10 -3 6 -8 10 -10 10 -2
0 -7 -4 -10 -10z"/>
<path d="M6934 6778 c10 -6 22 -6 26 -2 5 5 -3 10 -18 11 -22 1 -24 0 -8 -9z"/>
<path d="M6808 6773 c7 -3 16 -2 19 1 4 3 -2 6 -13 5 -11 0 -14 -3 -6 -6z"/>
<path d="M2076 6758 c3 -4 11 -8 19 -8 7 0 15 -5 17 -11 2 -6 12 -7 26 -2 19
7 17 10 -22 19 -25 5 -43 6 -40 2z"/>
<path d="M6820 6760 c-17 -5 -19 -8 -7 -9 9 -1 17 -6 17 -12 0 -5 5 -7 10 -4
6 4 8 11 4 16 -3 6 6 8 23 4 23 -4 24 -4 8 4 -24 11 -23 11 -55 1z"/>
<path d="M6908 6763 c7 -3 16 -2 19 1 4 3 -2 6 -13 5 -11 0 -14 -3 -6 -6z"/>
<path d="M2388 6683 c8 -13 24 -23 36 -22 19 1 18 2 -4 8 -23 7 -21 9 20 19
l45 12 -45 -5 c-29 -4 -40 -2 -31 4 10 7 7 9 -11 8 -24 -2 -24 -3 -10 -24z"/>
<path d="M6577 6690 c10 -11 24 -20 33 -20 10 0 7 7 -10 20 -32 25 -44 25 -23
0z"/>
<path d="M6675 6690 c3 -5 8 -10 11 -10 2 0 4 5 4 10 0 6 -5 10 -11 10 -5 0
-7 -4 -4 -10z"/>
<path d="M2310 6686 c0 -2 13 -6 29 -8 17 -2 28 -1 25 4 -5 8 -54 12 -54 4z"/>
<path d="M2458 6673 c7 -3 16 -2 19 1 4 3 -2 6 -13 5 -11 0 -14 -3 -6 -6z"/>
<path d="M2609 6619 c14 -5 28 -6 32 -2 4 4 -6 9 -24 10 -30 1 -31 1 -8 -8z"/>
<path d="M2721 6616 c-17 -20 0 -27 35 -16 28 10 28 10 -5 5 -19 -3 -31 -2
-28 2 4 4 26 10 50 14 l42 6 -41 2 c-25 0 -46 -5 -53 -13z"/>
<path d="M2835 6620 c-18 -8 -17 -9 8 -9 15 -1 27 4 27 9 0 12 -8 12 -35 0z"/>
<path d="M1198 6603 c7 -3 16 -2 19 1 4 3 -2 6 -13 5 -11 0 -14 -3 -6 -6z"/>
<path d="M1245 6595 c14 -7 1432 -340 1595 -375 297 -63 1660 -323 1665 -318
4 3 -1045 253 -1405 335 -224 51 -432 92 -1140 227 -677 130 -732 140 -715
131z"/>
<path d="M2994 6538 c8 -4 25 -4 38 1 20 8 18 9 -15 8 -24 -1 -32 -4 -23 -9z"/>
<path d="M3185 6535 c-32 -10 -35 -13 -15 -14 14 0 36 6 50 14 31 18 18 18
-35 0z"/>
<path d="M6095 6540 c3 -5 10 -10 16 -10 5 0 9 5 9 10 0 6 -7 10 -16 10 -8 0
-12 -4 -9 -10z"/>
<path d="M6148 6537 c15 -7 26 -7 33 0 7 7 -1 10 -23 10 -31 1 -32 0 -10 -10z"/>
<path d="M3080 6533 c14 -3 31 -10 38 -15 7 -6 15 -8 19 -4 3 3 0 6 -8 6 -11
0 -11 2 -1 8 8 6 -4 9 -30 9 -24 0 -32 -2 -18 -4z"/>
<path d="M3250 6530 c0 -5 5 -10 10 -10 6 0 10 5 10 10 0 6 -4 10 -10 10 -5 0
-10 -4 -10 -10z"/>
<path d="M6100 6515 c-14 -8 -20 -14 -13 -15 6 0 19 -3 27 -6 12 -5 15 -2 10
11 -6 15 -2 16 27 11 25 -4 29 -4 14 3 -27 13 -36 12 -65 -4z"/>
<path d="M3455 6459 c-11 -17 1 -21 15 -4 8 9 8 15 2 15 -6 0 -14 -5 -17 -11z"/>
<path d="M3530 6455 c0 -9 9 -15 23 -15 28 0 54 16 43 27 -5 4 -11 2 -13 -4
-3 -7 -14 -13 -24 -13 -11 0 -17 5 -14 10 3 6 1 10 -4 10 -6 0 -11 -7 -11 -15z"/>
<path d="M5949 6452 c12 -8 11 -11 -3 -15 -15 -4 -15 -5 1 -3 19 1 21 19 1 24
-10 3 -10 1 1 -6z"/>
<path d="M3498 6443 c7 -3 16 -2 19 1 4 3 -2 6 -13 5 -11 0 -14 -3 -6 -6z"/>
<path d="M5855 6440 c-18 -8 -17 -9 8 -9 15 -1 27 4 27 9 0 12 -8 12 -35 0z"/>
<path d="M5853 6413 c9 -2 23 -2 30 0 6 3 -1 5 -18 5 -16 0 -22 -2 -12 -5z"/>
<path d="M3848 6383 c7 -3 16 -2 19 1 4 3 -2 6 -13 5 -11 0 -14 -3 -6 -6z"/>
<path d="M5640 6381 c0 -6 5 -13 10 -16 6 -3 10 1 10 9 0 9 -4 16 -10 16 -5 0
-10 -4 -10 -9z"/>
<path d="M5774 6378 c10 -6 22 -6 26 -2 5 5 -3 10 -18 11 -22 1 -24 0 -8 -9z"/>
<path d="M5685 6370 c3 -5 14 -10 23 -10 15 0 15 2 2 10 -20 13 -33 13 -25 0z"/>
<path d="M5730 6369 c0 -5 5 -7 10 -4 6 3 10 8 10 11 0 2 -4 4 -10 4 -5 0 -10
-5 -10 -11z"/>
<path d="M1208 6363 c6 -2 18 -2 25 0 6 3 1 5 -13 5 -14 0 -19 -2 -12 -5z"/>
<path d="M1255 6354 c11 -4 760 -181 1245 -294 162 -38 362 -82 444 -99 233
-49 1568 -302 1572 -299 3 3 -634 155 -1316 314 -283 66 -570 124 -1437 289
-464 88 -536 100 -508 89z"/>
<path d="M3883 6333 c9 -2 23 -2 30 0 6 3 -1 5 -18 5 -16 0 -22 -2 -12 -5z"/>
<path d="M5448 6303 c7 -3 16 -2 19 1 4 3 -2 6 -13 5 -11 0 -14 -3 -6 -6z"/>
<path d="M5520 6300 c-13 -8 -13 -10 2 -10 9 0 20 5 23 10 8 13 -5 13 -25 0z"/>
<path d="M5560 6295 c-16 -19 -1 -19 24 0 16 12 17 15 4 15 -8 0 -21 -7 -28
-15z"/>
<path d="M4180 6296 c0 -2 13 -6 29 -8 17 -2 28 -1 25 4 -5 8 -54 12 -54 4z"/>
<path d="M4155 6280 c-2 -3 12 -7 31 -8 19 -2 34 -1 34 2 0 7 -61 13 -65 6z"/>
<path d="M5462 6275 c-22 -12 -22 -13 -3 -18 11 -3 22 1 25 9 3 8 13 11 23 8
15 -5 16 -4 3 5 -18 13 -18 13 -48 -4z"/>
<path d="M4448 6223 c7 -3 16 -2 19 1 4 3 -2 6 -13 5 -11 0 -14 -3 -6 -6z"/>
<path d="M4532 6219 c6 -4 3 -9 -8 -12 -10 -3 0 -3 23 0 30 4 50 1 68 -11 14
-9 25 -12 25 -7 0 5 -6 12 -12 14 -10 4 -10 8 -1 14 6 4 -14 8 -47 8 -32 0
-53 -3 -48 -6z"/>
<path d="M5209 6221 c11 -7 11 -9 0 -14 -8 -4 -2 -4 12 -1 16 3 32 0 40 -9 13
-12 16 -12 28 1 12 13 12 14 0 10 -8 -3 -28 1 -46 9 -36 15 -55 17 -34 4z"/>
<path d="M5320 6214 c0 -8 5 -12 10 -9 6 3 10 10 10 16 0 5 -4 9 -10 9 -5 0
-10 -7 -10 -16z"/>
<path d="M4472 6211 c-11 -7 -11 -9 0 -14 9 -3 15 1 15 9 0 8 -1 14 -1 14 -1
0 -7 -4 -14 -9z"/>
<path d="M5216 6191 c-19 -7 -19 -8 2 -13 15 -4 22 -2 22 8 0 8 -1 14 -2 13
-2 0 -12 -4 -22 -8z"/>
<path d="M4530 6180 c8 -5 20 -10 25 -10 6 0 3 5 -5 10 -8 5 -19 10 -25 10 -5
0 -3 -5 5 -10z"/>
<path d="M4570 6186 c0 -2 7 -6 15 -10 8 -3 15 -1 15 4 0 6 -7 10 -15 10 -8 0
-15 -2 -15 -4z"/>
<path d="M4948 6143 c7 -3 16 -2 19 1 4 3 -2 6 -13 5 -11 0 -14 -3 -6 -6z"/>
<path d="M5005 6140 l-30 -6 31 -5 c17 -3 40 -2 50 1 17 6 17 7 -2 11 -10 3
-32 2 -49 -1z"/>
<path d="M5085 6140 c-3 -5 -2 -10 4 -10 5 0 13 5 16 10 3 6 2 10 -4 10 -5 0
-13 -4 -16 -10z"/>
<path d="M1148 6123 c7 -3 16 -2 19 1 4 3 -2 6 -13 5 -11 0 -14 -3 -6 -6z"/>
<path d="M4838 6123 c7 -3 16 -2 19 1 4 3 -2 6 -13 5 -11 0 -14 -3 -6 -6z"/>
<path d="M1198 6113 c7 -3 16 -2 19 1 4 3 -2 6 -13 5 -11 0 -14 -3 -6 -6z"/>
<path d="M1235 6105 c19 -8 1422 -337 1580 -371 142 -30 1565 -305 1655 -319
82 -13 -20 13 -645 160 -963 228 -1003 236 -1945 414 -261 50 -511 97 -555
106 -76 14 -113 18 -90 10z"/>
<path d="M7420 5951 c19 -10 52 -24 73 -31 26 -8 37 -17 33 -26 -7 -20 9 -26
36 -14 16 8 31 8 48 1 14 -5 19 -10 12 -10 -15 -1 -171 -63 -284 -112 -36 -16
-72 -27 -80 -24 -7 3 -22 -2 -33 -10 -19 -15 -19 -16 3 -5 13 7 26 10 28 7 9
-8 -55 -29 -67 -21 -7 4 -10 3 -6 -3 6 -10 -48 -40 -55 -32 -2 2 -14 -4 -27
-13 -16 -11 -30 -14 -40 -8 -10 5 -23 3 -36 -6 -10 -8 -14 -14 -8 -14 7 0 15
5 18 10 4 6 11 7 17 4 6 -4 -23 -25 -66 -46 -42 -21 -82 -36 -87 -32 -8 4 -7
9 2 15 8 5 10 9 4 9 -5 0 -17 -5 -25 -10 -10 -6 -11 -10 -2 -10 6 0 12 -4 12
-10 0 -5 -6 -10 -14 -10 -8 0 -16 -6 -19 -12 -3 -10 -7 -10 -20 0 -9 8 -22 12
-29 9 -8 -4 -7 -6 5 -6 9 -1 17 -5 17 -9 0 -8 -144 -82 -161 -82 -6 0 -17 -7
-26 -15 -9 -10 -24 -13 -37 -10 -14 4 -17 3 -8 -3 11 -7 11 -10 -2 -15 -8 -3
-18 -2 -21 3 -4 6 -12 10 -18 9 -9 0 -9 -2 1 -6 17 -6 15 -23 -2 -23 -8 0 -16
-6 -19 -12 -3 -10 -8 -10 -21 1 -9 8 -19 11 -23 7 -3 -3 -1 -6 5 -6 21 0 13
-15 -19 -33 -17 -9 -36 -14 -41 -10 -7 4 -8 1 -3 -7 6 -10 4 -12 -9 -7 -11 5
-15 3 -10 -5 5 -8 1 -9 -12 -4 -10 4 -15 4 -11 0 4 -4 -23 -24 -60 -44 -59
-31 -71 -34 -88 -23 -11 7 -26 13 -35 13 -8 -1 -2 -7 14 -13 l30 -13 -51 -31
c-28 -18 -54 -29 -57 -26 -3 4 -6 2 -6 -4 0 -12 -45 -34 -62 -29 -7 1 -9 1 -5
-2 18 -9 -73 -53 -96 -47 -17 5 -19 4 -7 -4 13 -10 13 -12 0 -21 -8 -5 -20
-10 -26 -10 -5 0 -25 -11 -44 -25 -36 -27 -56 -33 -44 -13 4 7 3 8 -5 4 -6 -4
-9 -11 -6 -16 7 -11 -30 -32 -39 -23 -3 3 -6 1 -6 -7 0 -10 -3 -10 -15 0 -13
11 -14 10 -10 -2 6 -15 -13 -27 -249 -165 -28 -17 -37 -19 -32 -8 3 8 3 15 0
15 -2 0 -9 -12 -14 -26 -6 -14 -14 -22 -20 -19 -5 3 -10 2 -10 -3 0 -13 -62
-52 -72 -46 -5 3 -5 11 -2 17 4 7 3 8 -1 4 -5 -4 -10 -15 -11 -24 -3 -15 -34
-40 -43 -34 -2 1 -7 -1 -10 -7 -3 -5 -30 -25 -60 -46 -45 -30 -56 -34 -69 -24
-13 11 -15 10 -9 -5 6 -15 3 -17 -14 -12 -14 5 -19 3 -15 -3 4 -7 -11 -16 -36
-24 -49 -15 -420 -18 -453 -4 -11 5 -39 8 -61 7 -23 -1 -45 2 -49 8 -3 6 -16
9 -28 6 -12 -3 -112 8 -222 25 -218 33 -240 36 -286 38 -17 1 -28 6 -24 12 4
6 -12 8 -42 4 -37 -4 -44 -3 -33 6 12 8 6 9 -22 4 -21 -3 -46 -3 -55 1 -10 5
-28 7 -40 6 -13 -1 -23 2 -23 8 0 6 -6 8 -14 5 -18 -7 -447 65 -462 77 -6 5
-13 6 -17 3 -5 -6 -216 31 -247 43 -8 3 -33 7 -55 9 -22 3 -71 11 -110 18 -38
8 -102 20 -142 27 -39 7 -69 17 -67 21 3 4 -9 5 -27 1 -25 -5 -30 -3 -24 7 5
9 4 11 -3 6 -11 -7 -309 38 -342 51 -16 6 -33 8 -93 11 -25 1 -36 6 -31 13 4
7 0 9 -13 5 -33 -11 -489 64 -470 77 7 5 4 6 -10 2 -12 -3 -88 8 -170 26 -81
17 -186 39 -233 48 -47 10 -78 20 -70 23 8 4 -3 4 -24 1 -31 -5 -37 -3 -31 7
5 8 4 11 -3 6 -6 -3 -65 3 -132 16 -66 12 -115 25 -109 29 6 3 -8 6 -32 6 -56
-1 -145 12 -178 25 -22 9 -61 12 -101 9 -16 -1 -12 -14 16 -46 14 -16 22 -24
18 -16 -5 9 -1 12 12 8 71 -22 285 -71 424 -97 91 -18 316 -68 500 -112 568
-135 917 -215 1120 -257 301 -63 1722 -332 1733 -328 5 1 -65 20 -155 41 -226
53 -392 97 -338 91 25 -4 74 -10 110 -15 321 -43 474 -61 585 -70 277 -22 275
-21 287 -43 6 -11 21 -31 34 -44 37 -37 134 -196 134 -219 0 -3 -6 -1 -14 5
-10 8 -16 9 -21 2 -7 -12 14 -56 23 -47 3 4 0 12 -6 18 -21 21 -13 29 14 12
17 -11 24 -24 21 -36 -3 -10 -1 -16 3 -13 8 5 16 -21 27 -85 11 -60 13 -179 4
-220 l-10 -45 2 62 c2 34 0 60 -4 58 -3 -3 -9 16 -13 42 -7 54 -53 153 -107
233 -57 85 -74 93 -40 19 53 -117 73 -197 78 -314 4 -85 1 -125 -12 -175 -22
-83 -71 -188 -127 -270 -43 -63 -46 -65 -84 -62 -97 9 -818 162 -1323 281
-947 225 -927 220 -1936 412 -434 82 -801 153 -814 156 -21 5 -23 10 -18 46 3
22 21 63 40 91 19 28 40 61 46 74 7 12 19 22 29 22 13 0 14 2 4 9 -12 7 -12
19 -2 66 7 36 9 86 5 131 -6 65 -5 73 12 77 15 4 14 5 -4 6 -17 1 -25 10 -34
44 -19 73 -71 188 -137 305 -35 61 -65 112 -67 112 -2 0 7 -29 20 -65 75 -197
125 -420 125 -550 0 -131 -4 -142 -55 -147 -24 -3 -92 -29 -152 -58 -59 -29
-128 -55 -153 -58 l-45 -5 19 22 c25 27 16 27 -46 -5 -64 -32 -141 -104 -183
-169 -94 -147 -129 -390 -85 -596 34 -158 72 -249 152 -366 63 -92 124 -148
218 -203 236 -138 592 -364 1015 -646 1169 -779 1927 -1238 2187 -1323 37 -13
70 -27 74 -32 3 -5 9 -7 14 -4 4 3 188 48 407 100 392 93 934 198 1289 250
206 31 361 61 774 150 964 209 1802 423 2295 586 167 56 437 119 506 119 33 0
32 -3 18 56 -11 41 -10 47 11 69 29 31 23 55 -24 81 -37 21 -168 44 -248 44
-33 0 -42 7 -93 68 -69 83 -128 202 -150 306 -25 112 -16 297 20 426 26 94 96
255 134 309 35 49 23 47 -30 -4 -222 -217 -287 -504 -178 -787 36 -93 109
-207 173 -268 49 -47 56 -60 31 -60 -30 0 -73 -29 -79 -54 -5 -19 -21 -29 -78
-50 -69 -25 -657 -172 -2548 -640 -2139 -529 -2084 -515 -2098 -502 -15 14
-129 290 -173 418 -72 210 -39 509 89 821 l37 91 470 108 c259 59 650 146 870
194 1204 258 2343 520 2865 658 96 26 300 76 453 112 231 53 284 69 313 92 42
32 78 87 69 103 -27 43 -655 235 -1600 489 -170 46 -318 90 -328 98 -9 9 -20
12 -24 9 -3 -4 -2 -7 3 -7 5 0 -31 -23 -81 -50 -49 -26 -93 -46 -97 -44 -4 3
-8 1 -8 -4 0 -11 -51 -36 -69 -33 -7 1 -10 -2 -6 -8 5 -10 -1 -13 -21 -10 -4
0 -10 -3 -13 -8 -12 -18 -116 -70 -130 -65 -8 3 -11 0 -7 -6 4 -7 -14 -22 -44
-37 -27 -14 -50 -22 -50 -18 0 5 -4 3 -8 -2 -20 -29 -104 -62 -87 -35 4 6 10
8 15 5 4 -3 10 -1 12 3 3 7 185 111 388 219 41 22 81 38 89 35 8 -2 11 0 8 5
-7 12 50 46 63 38 6 -3 10 -2 10 4 0 12 60 46 60 34 0 -5 4 -3 8 2 12 16 47
41 38 28 -5 -9 -2 -11 8 -7 9 3 14 10 11 14 -6 10 55 36 74 32 8 -2 10 1 5 9
-5 9 -2 10 10 6 9 -4 15 -3 12 2 -6 10 69 53 78 44 3 -3 6 -1 6 6 0 7 7 11 15
8 8 -4 17 -1 21 5 5 7 2 8 -7 4 -8 -4 -5 0 6 8 11 9 26 14 34 11 9 -3 12 -3 8
1 -9 9 30 37 42 30 5 -3 12 1 15 10 4 9 13 14 22 10 8 -3 12 -2 9 4 -6 9 8 14
28 11 4 0 7 4 7 10 0 5 5 7 10 4 6 -3 10 -2 10 3 0 11 179 115 198 115 6 0 12
4 12 9 0 5 4 7 9 4 5 -3 12 1 15 10 3 8 10 13 15 10 4 -3 21 6 37 19 26 23 32
26 49 25 3 -1 13 6 21 15 36 36 41 0 7 -54 -28 -44 5 -16 64 54 149 179 223
344 223 496 0 120 -45 282 -123 448 -51 108 -58 87 -23 -68 14 -62 24 -117 21
-121 -3 -5 0 -10 5 -12 6 -2 12 -20 13 -41 1 -20 6 -37 11 -37 5 0 6 -17 3
-37 -5 -28 -4 -34 4 -23 7 11 9 -18 7 -96 -2 -85 -7 -116 -21 -137 -10 -15
-17 -33 -15 -40 4 -20 -12 -67 -22 -67 -5 0 -6 -7 -3 -17 5 -12 3 -14 -7 -8
-8 5 -11 4 -6 -3 7 -12 -13 -62 -26 -62 -5 0 -6 -4 -3 -10 3 -5 -1 -10 -9 -10
-9 0 -16 6 -16 13 0 6 -6 1 -13 -13 -14 -26 -12 -44 2 -21 5 7 15 11 22 8 8
-2 -7 -14 -35 -26 -27 -12 -56 -19 -63 -17 -8 3 -12 2 -9 -3 3 -4 -6 -13 -20
-20 -14 -6 -23 -7 -19 -1 3 6 -1 7 -9 4 -9 -3 -14 -9 -11 -14 2 -4 -42 -26
-98 -50 -56 -24 -107 -47 -113 -52 -6 -4 -20 -6 -30 -2 -13 4 -15 3 -6 -3 15
-11 -191 -109 -223 -106 -11 1 -14 -1 -7 -4 20 -8 -117 -75 -138 -68 -10 3
-21 1 -25 -4 -3 -7 0 -8 9 -5 9 3 16 4 16 1 0 -12 -282 -147 -293 -140 -5 3
-7 1 -4 -4 7 -12 -146 -97 -156 -87 -7 7 -62 -22 -62 -33 0 -4 -4 -7 -9 -5 -5
2 -18 -6 -30 -17 -11 -11 -28 -21 -36 -23 -8 -2 -21 -10 -28 -18 -12 -13 -13
-13 -6 0 4 8 4 12 -1 8 -4 -4 -16 -3 -27 3 -24 13 -55 -8 -38 -25 5 -5 10 -13
10 -17 0 -9 -58 -39 -77 -39 -7 0 -13 -4 -13 -8 0 -4 -13 -15 -28 -24 -20 -12
-32 -14 -42 -6 -12 8 -11 8 5 3 15 -5 17 -3 8 6 -18 18 -37 1 -21 -19 10 -12
10 -14 1 -8 -7 4 -13 4 -13 -1 0 -4 -14 -16 -31 -25 -22 -13 -35 -15 -49 -8
-10 6 -22 10 -27 10 -4 -1 3 -7 16 -14 l24 -13 -22 -12 c-12 -7 -27 -9 -33 -5
-6 4 -8 3 -5 -3 4 -6 -8 -18 -26 -27 -33 -17 -71 -39 -154 -92 -39 -25 -54
-30 -69 -22 -15 9 -17 8 -7 -2 10 -11 5 -19 -30 -39 -23 -14 -44 -26 -47 -26
-3 0 -11 -4 -17 -8 -7 -5 -17 -5 -23 -2 -6 4 -7 -1 -3 -11 5 -14 3 -16 -11
-11 -9 4 -15 3 -12 -2 3 -5 -8 -18 -26 -29 -29 -19 -34 -19 -57 -5 -25 14 -25
14 -6 -1 20 -17 20 -17 -5 -36 -25 -20 -37 -24 -55 -20 -5 1 -7 -2 -3 -6 11
-11 -30 -36 -45 -28 -6 4 -9 3 -4 -1 9 -11 -43 -46 -57 -38 -6 3 -8 3 -4 -2 5
-5 -1 -15 -13 -23 -18 -12 -23 -12 -42 5 l-22 18 18 -22 c12 -14 15 -23 8 -28
-6 -3 -14 1 -17 9 -3 9 -11 16 -16 16 -6 0 -5 -7 2 -16 11 -12 11 -18 -2 -30
-8 -9 -23 -16 -32 -18 -10 -1 -21 -7 -24 -13 -12 -19 -113 -83 -122 -78 -5 3
-12 0 -16 -6 -5 -8 -3 -9 6 -4 9 5 11 4 6 -4 -4 -6 -12 -9 -17 -6 -5 4 -9 2
-9 -3 0 -6 -6 -12 -14 -15 -7 -3 2 19 22 49 26 40 38 51 44 42 6 -8 7 -5 3 11
-5 17 -4 22 5 16 9 -5 11 -4 6 3 -4 7 4 46 19 87 53 154 53 307 0 452 -12 35
-18 60 -12 56 6 -3 7 -1 3 5 -4 6 -2 22 4 34 10 21 10 21 -9 -2 -11 -14 -21
-19 -21 -12 0 21 -3 27 -18 38 -8 6 -12 16 -8 22 4 7 1 12 -7 12 -7 0 -20 12
-27 26 -8 14 -22 30 -32 35 -10 6 -15 15 -12 21 4 6 3 8 -3 5 -6 -4 -16 0 -23
8 -10 13 -9 19 6 38 l19 22 -22 -19 c-22 -18 -23 -18 -58 4 -20 12 -35 24 -33
25 2 2 23 6 48 9 34 5 41 4 30 -5 -12 -9 -11 -10 7 -6 13 3 26 1 29 -4 3 -5
11 -9 17 -8 9 0 9 2 0 6 -7 2 -13 9 -13 14 0 6 5 7 10 4 6 -3 10 -2 10 3 0 6
17 13 38 17 20 3 57 15 81 26 24 10 52 19 63 19 10 0 17 4 14 8 -8 13 57 40
91 38 18 -1 30 3 30 10 0 7 -7 10 -16 7 -9 -3 3 7 27 22 23 14 47 23 54 19 6
-4 8 -3 5 3 -8 13 129 97 143 88 6 -4 9 -1 8 7 -2 7 5 12 14 12 10 -1 16 2 13
6 -6 10 39 40 60 40 9 0 18 7 21 15 4 8 10 12 15 9 5 -3 9 0 9 7 0 8 4 8 15
-1 13 -11 14 -10 10 3 -8 21 12 32 31 16 11 -9 18 -9 26 -1 14 14 32 16 23 3
-3 -5 -1 -12 4 -15 10 -7 9 20 -2 30 -3 4 -14 1 -22 -6 -12 -10 -19 -10 -27
-2 -7 7 -9 13 -5 13 4 1 12 3 17 4 6 1 15 3 21 4 5 0 8 5 4 10 -3 5 5 13 17
17 12 3 28 13 36 21 8 8 21 12 28 9 19 -8 41 -14 31 -9 -4 3 -5 9 -2 14 4 5
-2 6 -12 3 -16 -5 -16 -4 1 10 25 20 40 20 32 0 -3 -9 -2 -12 5 -9 6 4 8 13 5
20 -6 17 81 68 98 58 6 -3 8 -2 3 2 -4 5 12 21 35 36 37 23 45 25 59 13 13
-12 16 -12 16 1 0 8 -4 12 -9 9 -4 -3 -8 -2 -8 3 0 14 117 66 133 60 11 -4 14
-2 11 8 -6 15 30 30 47 19 8 -4 9 -3 5 5 -9 14 79 56 96 45 6 -4 8 -3 5 3 -8
12 140 86 154 78 5 -4 9 -2 9 2 0 7 94 57 110 58 3 1 20 9 38 18 18 10 38 15
44 11 7 -5 8 -3 3 6 -6 10 -4 12 9 7 9 -4 15 -3 12 1 -8 14 180 91 195 80 10
-7 9 -8 -6 -3 -15 5 -17 3 -8 -6 9 -9 18 -7 39 10 15 11 22 21 17 21 -5 0 -14
-5 -20 -11 -6 -6 -13 -7 -16 -2 -8 13 270 143 291 137 13 -5 14 -4 3 4 -11 8
-11 10 0 14 8 3 21 -1 30 -8 13 -12 16 -12 16 1 0 8 -4 12 -9 9 -4 -3 -8 -2
-8 3 0 10 281 148 297 147 7 -1 10 3 6 9 -4 6 0 8 9 4 14 -5 17 4 9 31 -1 1
-17 -4 -36 -12 -19 -8 -35 -12 -35 -8 0 4 -4 1 -9 -6 -4 -7 -14 -14 -22 -16
-8 -1 -29 -10 -47 -20 -19 -10 -36 -16 -38 -13 -6 6 230 127 247 127 12 0 12
-2 1 -9 -11 -7 -11 -9 0 -13 20 -8 28 -9 27 -2 0 4 5 11 13 16 10 7 8 8 -6 6
-38 -6 -28 23 15 40 l42 16 -89 23 c-69 18 -117 23 -219 23 l-130 0 35 -19z
m135 -61 c-3 -5 -12 -10 -18 -10 -7 0 -6 4 3 10 19 12 23 12 15 0z m225 -968
c0 -4 -21 -18 -47 -31 -54 -26 -52 -19 4 15 44 27 43 27 43 16z m-1425 -642
c-3 -6 1 -7 9 -4 9 3 16 2 16 -4 0 -16 -28 -22 -39 -8 -11 13 -5 26 11 26 5 0
6 -4 3 -10z m-5506 -141 c79 -18 139 -35 133 -37 -6 -2 -77 10 -157 27 -80 17
-147 31 -150 31 -3 0 -5 5 -5 11 0 6 8 8 18 5 9 -2 82 -19 161 -37z m178 -45
c-3 -3 -12 -4 -19 -1 -8 3 -5 6 6 6 11 1 17 -2 13 -5z m40 -10 c-3 -3 -12 -4
-19 -1 -8 3 -5 6 6 6 11 1 17 -2 13 -5z m5157 -73 c3 -5 -12 -16 -33 -25 -22
-8 -42 -20 -45 -25 -4 -6 -14 -7 -23 -4 -9 4 -14 2 -10 -3 6 -10 -100 -70
-115 -66 -5 1 -8 -2 -8 -7 0 -5 -7 -12 -16 -15 -9 -3 -14 -1 -12 5 4 11 107
71 184 107 23 11 45 25 48 31 9 13 23 14 30 2z m-276 -152 c-2 -6 -7 -10 -12
-9 -5 1 -12 -2 -15 -7 -8 -13 -182 -106 -187 -101 -2 3 15 14 39 27 23 12 49
26 57 31 54 33 116 70 118 70 2 0 2 -5 0 -11z m-1018 -499 c0 -5 -5 -10 -11
-10 -5 0 -7 5 -4 10 3 6 8 10 11 10 2 0 4 -4 4 -10z m2539 -1515 c-7 -6 -665
-173 -929 -235 -526 -124 -1008 -225 -989 -206 4 4 295 73 1279 302 588 136
649 150 639 139z"/>
<path d="M7285 5930 c-3 -6 1 -7 9 -4 18 7 21 14 7 14 -6 0 -13 -4 -16 -10z"/>
<path d="M7340 5930 c0 -5 5 -10 11 -10 5 0 7 5 4 10 -3 6 -8 10 -11 10 -2 0
-4 -4 -4 -10z"/>
<path d="M1178 5923 c7 -3 16 -2 19 1 4 3 -2 6 -13 5 -11 0 -14 -3 -6 -6z"/>
<path d="M1215 5915 c6 -2 69 -18 140 -34 72 -16 341 -80 600 -141 641 -152
831 -195 1030 -235 395 -79 1497 -286 1501 -282 3 3 -12 8 -33 12 -21 4 -341
78 -711 166 -839 198 -935 218 -1806 384 -635 121 -755 143 -721 130z"/>
<path d="M4528 5893 c7 -3 16 -2 19 1 4 3 -2 6 -13 5 -11 0 -14 -3 -6 -6z"/>
<path d="M7090 5860 c-13 -8 -12 -10 3 -10 9 0 17 5 17 10 0 12 -1 12 -20 0z"/>
<path d="M7135 5861 l20 -8 -20 -6 -20 -6 20 2 c24 3 23 21 -2 24 -15 2 -14 1
2 -6z"/>
<path d="M7811 5844 c0 -11 3 -14 6 -6 3 7 2 16 -1 19 -3 4 -6 -2 -5 -13z"/>
<path d="M7781 5824 c0 -11 3 -14 6 -6 3 7 2 16 -1 19 -3 4 -6 -2 -5 -13z"/>
<path d="M7297 5819 c7 -7 15 -10 18 -7 3 3 -2 9 -12 12 -14 6 -15 5 -6 -5z"/>
<path d="M7806 5807 c3 -10 9 -15 12 -12 3 3 0 11 -7 18 -10 9 -11 8 -5 -6z"/>
<path d="M7015 5790 l-20 -9 20 0 c17 -1 18 -3 5 -12 -12 -8 -12 -10 -1 -7 8
2 15 12 17 21 1 9 2 17 1 16 -1 0 -11 -4 -22 -9z"/>
<path d="M718 5763 c7 -3 16 -2 19 1 4 3 -2 6 -13 5 -11 0 -14 -3 -6 -6z"/>
<path d="M7150 5746 c0 -2 7 -7 16 -10 8 -3 12 -2 9 4 -6 10 -25 14 -25 6z"/>
<path d="M6835 5720 c-3 -5 -1 -10 4 -10 6 0 11 5 11 10 0 6 -2 10 -4 10 -3 0
-8 -4 -11 -10z"/>
<path d="M7144 5721 c4 -5 0 -12 -6 -14 -10 -4 -10 -6 0 -6 7 -1 10 -5 7 -11
-3 -6 1 -7 10 -3 13 5 14 7 3 14 -10 7 -11 9 0 9 7 0 10 5 7 10 -3 6 -11 10
-16 10 -6 0 -8 -4 -5 -9z"/>
<path d="M6747 5699 c7 -7 15 -10 18 -7 3 3 -2 9 -12 12 -14 6 -15 5 -6 -5z"/>
<path d="M6795 5700 c-3 -6 1 -7 9 -4 18 7 21 14 7 14 -6 0 -13 -4 -16 -10z"/>
<path d="M6860 5700 c-9 -6 -10 -10 -3 -10 6 0 15 5 18 10 8 12 4 12 -15 0z"/>
<path d="M6704 5687 c-4 -7 -4 -9 1 -5 4 4 16 3 27 -3 11 -6 22 -9 24 -6 2 2
-7 9 -21 15 -18 9 -26 8 -31 -1z"/>
<path d="M7485 5690 c-3 -5 -2 -10 4 -10 5 0 13 5 16 10 3 6 2 10 -4 10 -5 0
-13 -4 -16 -10z"/>
<path d="M7520 5680 c-8 -5 -10 -10 -5 -10 6 0 17 5 25 10 8 5 11 10 5 10 -5
0 -17 -5 -25 -10z"/>
<path d="M4538 5653 c7 -3 16 -2 19 1 4 3 -2 6 -13 5 -11 0 -14 -3 -6 -6z"/>
<path d="M6610 5656 c0 -2 7 -7 16 -10 8 -3 12 -2 9 4 -6 10 -25 14 -25 6z"/>
<path d="M6589 5623 c-13 -16 -12 -17 4 -4 9 7 17 15 17 17 0 8 -8 3 -21 -13z"/>
<path d="M6622 5621 c-11 -7 -11 -9 0 -14 9 -3 15 1 15 9 0 8 -1 14 -1 14 -1
0 -7 -4 -14 -9z"/>
<path d="M7390 5610 c0 -5 5 -10 11 -10 5 0 7 5 4 10 -3 6 -8 10 -11 10 -2 0
-4 -4 -4 -10z"/>
<path d="M1313 5573 c9 -2 23 -2 30 0 6 3 -1 5 -18 5 -16 0 -22 -2 -12 -5z"/>
<path d="M6426 5569 c3 -5 0 -9 -5 -9 -6 0 -11 -4 -11 -9 0 -5 14 -3 30 5 17
9 30 16 30 17 0 1 -11 3 -25 3 -14 1 -22 -2 -19 -7z"/>
<path d="M1430 5565 c0 -2 10 -10 23 -16 20 -11 21 -11 8 4 -13 16 -31 23 -31
12z"/>
<path d="M6840 5559 c0 -5 5 -7 10 -4 6 3 10 8 10 11 0 2 -4 4 -10 4 -5 0 -10
-5 -10 -11z"/>
<path d="M7244 5558 c10 -6 22 -6 26 -2 5 5 -3 10 -18 11 -22 1 -24 0 -8 -9z"/>
<path d="M1365 5550 c-3 -6 1 -7 9 -4 18 7 21 14 7 14 -6 0 -13 -4 -16 -10z"/>
<path d="M7865 5550 c3 -5 8 -10 11 -10 2 0 4 5 4 10 0 6 -5 10 -11 10 -5 0
-7 -4 -4 -10z"/>
<path d="M6357 5537 c3 -5 12 -6 20 -3 11 5 13 2 9 -9 -3 -9 -2 -13 4 -10 19
12 10 33 -14 31 -13 0 -22 -5 -19 -9z"/>
<path d="M6443 5542 c-9 -5 -6 -12 10 -21 19 -13 21 -12 10 1 -7 8 -10 18 -6
21 9 9 1 8 -14 -1z"/>
<path d="M1078 5533 c7 -3 16 -2 19 1 4 3 -2 6 -13 5 -11 0 -14 -3 -6 -6z"/>
<path d="M1401 5529 c17 -11 39 -12 39 -1 0 4 -12 8 -27 9 -19 1 -22 -1 -12
-8z"/>
<path d="M1576 5526 c10 -8 21 -12 24 -10 5 6 -21 24 -34 24 -6 0 -1 -6 10
-14z"/>
<path d="M670 5500 c-114 -14 -170 -48 -170 -105 0 -30 23 -75 39 -75 5 0 7
15 4 34 l-4 34 73 7 c40 4 87 9 103 11 17 2 46 6 65 9 59 8 300 62 307 69 3 3
4 9 0 12 -9 10 -345 13 -417 4z"/>
<path d="M7090 5500 c-9 -6 -10 -10 -3 -10 6 0 15 5 18 10 8 12 4 12 -15 0z"/>
<path d="M7089 5469 c-23 -19 -23 -20 -2 -10 12 6 25 16 28 21 10 16 -1 12
-26 -11z"/>
<path d="M1088 5463 c7 -3 16 -2 19 1 4 3 -2 6 -13 5 -11 0 -14 -3 -6 -6z"/>
<path d="M1888 5453 c6 -2 18 -2 25 0 6 3 1 5 -13 5 -14 0 -19 -2 -12 -5z"/>
<path d="M7100 5450 c-9 -6 -10 -10 -3 -10 6 0 15 5 18 10 8 12 4 12 -15 0z"/>
<path d="M6047 5389 c7 -7 15 -10 18 -7 3 3 -2 9 -12 12 -14 6 -15 5 -6 -5z"/>
<path d="M2190 5379 c0 -5 5 -7 10 -4 6 3 10 8 10 11 0 2 -4 4 -10 4 -5 0 -10
-5 -10 -11z"/>
<path d="M2138 5373 c7 -3 16 -2 19 1 4 3 -2 6 -13 5 -11 0 -14 -3 -6 -6z"/>
<path d="M6920 5366 c0 -2 7 -7 16 -10 8 -3 12 -2 9 4 -6 10 -25 14 -25 6z"/>
<path d="M6334 5328 c-13 -20 -13 -37 -2 -45 7 -4 8 -1 3 7 -6 10 -3 12 11 7
18 -7 18 -6 1 7 -13 10 -15 15 -5 19 7 2 10 7 7 11 -4 4 -11 1 -15 -6z"/>
<path d="M2468 5313 c6 -2 18 -2 25 0 6 3 1 5 -13 5 -14 0 -19 -2 -12 -5z"/>
<path d="M6697 5299 c7 -7 15 -10 18 -7 3 3 -2 9 -12 12 -14 6 -15 5 -6 -5z"/>
<path d="M2488 5293 c7 -3 16 -2 19 1 4 3 -2 6 -13 5 -11 0 -14 -3 -6 -6z"/>
<path d="M782 5256 c7 -8 15 -12 17 -11 5 6 -10 25 -20 25 -5 0 -4 -6 3 -14z"/>
<path d="M698 5253 c7 -3 16 -2 19 1 4 3 -2 6 -13 5 -11 0 -14 -3 -6 -6z"/>
<path d="M6523 5225 c0 -7 6 -11 14 -8 7 3 13 6 13 8 0 2 -6 5 -13 8 -8 3 -14
-1 -14 -8z"/>
<path d="M908 5223 c7 -3 16 -2 19 1 4 3 -2 6 -13 5 -11 0 -14 -3 -6 -6z"/>
<path d="M2858 5223 c6 -2 18 -2 25 0 6 3 1 5 -13 5 -14 0 -19 -2 -12 -5z"/>
<path d="M5698 5223 c7 -3 16 -2 19 1 4 3 -2 6 -13 5 -11 0 -14 -3 -6 -6z"/>
<path d="M6180 5220 c13 -8 12 -10 -4 -10 -11 0 -17 -3 -13 -6 3 -3 15 -3 28
1 17 6 19 9 8 16 -8 5 -18 9 -24 9 -5 0 -3 -5 5 -10z"/>
<path d="M4508 5213 c7 -3 16 -2 19 1 4 3 -2 6 -13 5 -11 0 -14 -3 -6 -6z"/>
<path d="M6478 5213 c6 -2 10 -9 7 -14 -4 -5 1 -6 10 -2 13 5 14 7 3 14 -7 5
-17 8 -23 8 -5 0 -4 -3 3 -6z"/>
<path d="M5560 5171 c0 -17 21 -24 33 -12 9 9 7 10 -7 5 -13 -5 -17 -4 -12 4
4 7 2 12 -3 12 -6 0 -11 -4 -11 -9z"/>
<path d="M3265 5160 c-16 -7 -17 -9 -3 -9 9 -1 20 4 23 9 7 11 7 11 -20 0z"/>
<path d="M5525 5150 c-3 -6 1 -7 9 -4 18 7 21 14 7 14 -6 0 -13 -4 -16 -10z"/>
<path d="M3220 5139 c0 -5 5 -7 10 -4 6 3 10 8 10 11 0 2 -4 4 -10 4 -5 0 -10
-5 -10 -11z"/>
<path d="M3328 5143 c7 -3 16 -2 19 1 4 3 -2 6 -13 5 -11 0 -14 -3 -6 -6z"/>
<path d="M3350 5130 c-9 -6 -10 -10 -3 -10 6 0 15 5 18 10 8 12 4 12 -15 0z"/>
<path d="M3420 5126 c0 -2 7 -7 16 -10 8 -3 12 -2 9 4 -6 10 -25 14 -25 6z"/>
<path d="M5570 5126 c0 -2 7 -7 16 -10 8 -3 12 -2 9 4 -6 10 -25 14 -25 6z"/>
<path d="M5910 5096 c0 -2 8 -10 18 -17 15 -13 16 -12 3 4 -13 16 -21 21 -21
13z"/>
<path d="M5864 5075 c-10 -8 -14 -15 -8 -15 6 0 17 7 24 15 16 19 9 19 -16 0z"/>
<path d="M6200 5080 c-9 -6 -10 -10 -3 -10 6 0 15 5 18 10 8 12 4 12 -15 0z"/>
<path d="M3698 5063 c6 -2 18 -2 25 0 6 3 1 5 -13 5 -14 0 -19 -2 -12 -5z"/>
<path d="M2108 5003 c7 -3 16 -2 19 1 4 3 -2 6 -13 5 -11 0 -14 -3 -6 -6z"/>
<path d="M2188 5003 c7 -3 16 -2 19 1 4 3 -2 6 -13 5 -11 0 -14 -3 -6 -6z"/>
<path d="M5108 4983 c7 -3 16 -2 19 1 4 3 -2 6 -13 5 -11 0 -14 -3 -6 -6z"/>
<path d="M6025 4970 c-3 -5 -2 -10 4 -10 5 0 13 5 16 10 3 6 2 10 -4 10 -5 0
-13 -4 -16 -10z"/>
<path d="M4158 4963 c7 -3 16 -2 19 1 4 3 -2 6 -13 5 -11 0 -14 -3 -6 -6z"/>
<path d="M4910 4933 c-14 -3 -29 -8 -34 -13 -5 -5 8 -5 29 0 20 4 39 11 42 14
7 6 4 6 -37 -1z"/>
<path d="M5600 4926 c0 -2 7 -7 16 -10 8 -3 12 -2 9 4 -6 10 -25 14 -25 6z"/>
<path d="M7610 4919 c0 -5 5 -7 10 -4 6 3 10 8 10 11 0 2 -4 4 -10 4 -5 0 -10
-5 -10 -11z"/>
<path d="M2638 4913 c7 -3 16 -2 19 1 4 3 -2 6 -13 5 -11 0 -14 -3 -6 -6z"/>
<path d="M4784 4909 c-3 -6 -1 -16 4 -21 8 -8 11 -5 9 11 -1 24 -3 25 -13 10z"/>
<path d="M898 4903 c7 -3 16 -2 19 1 4 3 -2 6 -13 5 -11 0 -14 -3 -6 -6z"/>
<path d="M935 4895 c6 -3 163 -40 350 -84 187 -44 534 -125 770 -181 237 -56
511 -119 610 -140 229 -49 1766 -342 1771 -338 2 2 -221 56 -494 121 -273 64
-630 148 -792 186 -430 102 -544 125 -1414 291 -714 136 -834 157 -801 145z"/>
<path d="M7452 4865 c2 -1 12 -7 24 -13 15 -8 21 -8 21 1 0 7 -11 13 -24 13
-14 1 -23 1 -21 -1z"/>
<path d="M7437 4849 c7 -7 15 -10 18 -7 3 3 -2 9 -12 12 -14 6 -15 5 -6 -5z"/>
<path d="M5540 4840 c-8 -5 -10 -10 -5 -10 6 0 17 5 25 10 8 5 11 10 5 10 -5
0 -17 -5 -25 -10z"/>
<path d="M5463 4828 c-22 -29 -24 -41 -3 -20 12 13 20 25 17 28 -2 2 -9 -1
-14 -8z"/>
<path d="M5399 4777 c11 -14 11 -17 1 -17 -8 0 -11 -3 -7 -6 3 -3 12 -2 21 3
13 7 12 11 -7 22 -20 13 -21 13 -8 -2z"/>
<path d="M7217 4779 c7 -7 15 -10 18 -7 3 3 -2 9 -12 12 -14 6 -15 5 -6 -5z"/>
<path d="M3505 4770 c-13 -6 -15 -9 -5 -9 8 0 22 4 30 9 18 12 2 12 -25 0z"/>
<path d="M7268 4763 c7 -3 16 -2 19 1 4 3 -2 6 -13 5 -11 0 -14 -3 -6 -6z"/>
<path d="M5639 4743 c-13 -16 -12 -17 4 -4 9 7 17 15 17 17 0 8 -8 3 -21 -13z"/>
<path d="M3493 4743 c9 -2 25 -2 35 0 9 3 1 5 -18 5 -19 0 -27 -2 -17 -5z"/>
<path d="M3568 4733 c7 -3 16 -2 19 1 4 3 -2 6 -13 5 -11 0 -14 -3 -6 -6z"/>
<path d="M858 4693 c7 -3 16 -2 19 1 4 3 -2 6 -13 5 -11 0 -14 -3 -6 -6z"/>
<path d="M5567 4689 c7 -7 15 -10 18 -7 3 3 -2 9 -12 12 -14 6 -15 5 -6 -5z"/>
<path d="M895 4685 c17 -7 1443 -342 1610 -379 284 -62 1884 -370 1891 -363 2
1 -135 35 -304 75 -169 39 -525 123 -792 186 -628 148 -724 168 -1630 341
-678 129 -811 153 -775 140z"/>
<path d="M3948 4683 c7 -3 16 -2 19 1 4 3 -2 6 -13 5 -11 0 -14 -3 -6 -6z"/>
<path d="M5223 4683 c-7 -2 -13 -14 -12 -26 0 -15 2 -17 6 -7 3 8 12 21 21 28
16 12 8 15 -15 5z"/>
<path d="M5245 4660 c-3 -6 1 -7 9 -4 18 7 21 14 7 14 -6 0 -13 -4 -16 -10z"/>
<path d="M5523 4657 c1 -7 -6 -11 -15 -9 -21 3 -24 -4 -5 -11 7 -3 21 1 30 8
15 11 16 13 2 18 -8 4 -14 1 -12 -6z"/>
<path d="M5110 4599 c0 -5 5 -7 10 -4 6 3 10 8 10 11 0 2 -4 4 -10 4 -5 0 -10
-5 -10 -11z"/>
<path d="M5405 4601 c-3 -5 -2 -12 3 -15 5 -3 9 1 9 9 0 17 -3 19 -12 6z"/>
<path d="M5263 4523 c4 -3 1 -13 -6 -22 -11 -14 -10 -14 5 -2 16 12 16 31 1
31 -4 0 -3 -3 0 -7z"/>
<path d="M6795 4520 c3 -6 -2 -10 -12 -11 -10 0 -13 -3 -6 -5 7 -3 20 -1 29 4
15 8 15 9 0 15 -10 4 -15 3 -11 -3z"/>
<path d="M6683 4464 c4 -4 1 -14 -6 -23 -11 -14 -10 -15 8 -1 11 8 21 15 23
16 2 1 -5 5 -15 8 -9 4 -14 4 -10 0z"/>
<path d="M6633 4437 c0 -8 6 -14 14 -14 9 0 10 4 2 14 -6 7 -12 13 -14 13 -1
0 -2 -6 -2 -13z"/>
<path d="M4827 4413 c6 -16 25 -13 31 5 2 6 -6 10 -16 9 -12 -1 -18 -6 -15
-14z"/>
<path d="M4967 4415 c3 -8 9 -12 14 -9 12 7 11 11 -5 17 -10 4 -13 1 -9 -8z"/>
<path d="M825 4415 c6 -3 163 -40 350 -84 187 -44 540 -127 785 -185 245 -57
522 -121 615 -141 223 -47 1737 -336 1747 -333 8 3 -1340 323 -1657 393 -188
41 -1822 356 -1841 354 -5 0 -4 -2 1 -4z"/>
<path d="M4408 4403 c6 -2 18 -2 25 0 6 3 1 5 -13 5 -14 0 -19 -2 -12 -5z"/>
<path d="M4458 4393 c7 -3 16 -2 19 1 4 3 -2 6 -13 5 -11 0 -14 -3 -6 -6z"/>
<path d="M4912 4340 c7 -11 17 -20 22 -20 5 0 1 9 -9 20 -10 11 -20 20 -22 20
-2 0 2 -9 9 -20z"/>
<path d="M4927 4290 c7 -8 20 -15 29 -16 9 -1 13 1 9 4 -4 4 -10 7 -13 7 -4 0
-14 4 -22 9 -12 7 -13 6 -3 -4z"/>
<path d="M4987 4213 c-4 -3 -7 -11 -7 -17 0 -6 5 -5 12 2 6 6 9 14 7 17 -3 3
-9 2 -12 -2z"/>
<path d="M5165 4150 c3 -5 8 -10 11 -10 2 0 4 5 4 10 0 6 -5 10 -11 10 -5 0
-7 -4 -4 -10z"/>
<path d="M4458 4143 c7 -3 16 -2 19 1 4 3 -2 6 -13 5 -11 0 -14 -3 -6 -6z"/>
<path d="M6000 4091 c0 -6 4 -13 10 -16 6 -3 7 1 4 9 -7 18 -14 21 -14 7z"/>
<path d="M5870 4049 c0 -5 5 -7 10 -4 6 3 10 8 10 11 0 2 -4 4 -10 4 -5 0 -10
-5 -10 -11z"/>
<path d="M5926 4033 c-6 -14 -5 -15 5 -6 7 7 10 15 7 18 -3 3 -9 -2 -12 -12z"/>
<path d="M5061 4033 c-1 -6 -4 -20 -7 -30 -5 -17 -5 -17 6 0 6 10 9 23 6 30
-3 9 -5 9 -5 0z"/>
<path d="M5795 3961 c-3 -5 -2 -12 3 -15 5 -3 9 1 9 9 0 17 -3 19 -12 6z"/>
<path d="M5629 3873 c-13 -16 -12 -17 3 -4 10 7 25 11 33 7 9 -3 13 -2 10 4
-10 15 -31 12 -46 -7z"/>
<path d="M5400 3746 c0 -2 7 -7 16 -10 8 -3 12 -2 9 4 -6 10 -25 14 -25 6z"/>
<path d="M4348 3663 c7 -3 16 -2 19 1 4 3 -2 6 -13 5 -11 0 -14 -3 -6 -6z"/>
<path d="M5170 3550 c-8 -5 -10 -10 -5 -10 6 0 17 5 25 10 8 5 11 10 5 10 -5
0 -17 -5 -25 -10z"/>
<path d="M8248 3243 c7 -3 16 -2 19 1 4 3 -2 6 -13 5 -11 0 -14 -3 -6 -6z"/>
<path d="M7825 3165 c-198 -40 -538 -112 -755 -160 -790 -174 -1045 -228
-1605 -341 -826 -167 -1323 -276 -1500 -329 l-50 -15 45 6 c25 3 171 28 325
55 1005 178 1968 376 2910 599 399 94 1028 250 1033 255 13 13 -68 -1 -403
-70z"/>
<path d="M8245 2973 c-11 -2 -112 -22 -225 -44 -264 -51 -580 -117 -1115 -235
-645 -142 -797 -174 -1445 -305 -773 -156 -1569 -334 -1513 -338 14 -1 677
116 933 165 1033 196 1763 354 2730 588 444 108 701 174 675 174 -11 0 -29 -2
-40 -5z"/>
<path d="M8330 2743 c-159 -29 -705 -141 -1055 -218 -908 -199 -1136 -247
-1745 -370 -344 -69 -726 -149 -850 -176 -282 -62 -642 -150 -637 -155 9 -9
1031 179 1667 307 740 150 1261 266 2035 455 497 121 658 162 630 162 -11 -1
-31 -3 -45 -5z"/>
<path d="M7970 2411 c-239 -49 -671 -141 -960 -204 -692 -153 -722 -159 -1385
-293 -846 -171 -1567 -332 -1537 -342 18 -6 860 147 1457 264 550 109 1216
253 1840 401 424 100 1065 261 1040 261 -11 1 -216 -39 -455 -87z"/>
</g>
</svg>
